<svg xmlns="http://www.w3.org/2000/svg" viewBox="0 0 100 100"><path d="M50 5C25.2 5 5 25.2 5 50c0 24.9 20.2 45 45 45 24.9 0 45-20.1 45-45C95 25.2 74.9 5 50 5zM32.9 65.4v1.9h20.5v-1.9H32.9zM41 27.8c-1.2 0-2.2-1-2.2-2.2 0-1.2 1-2.1 2.2-2.1h6.9v-6.9c0-1.2.9-2.2 2.1-2.2 1.2 0 2.1 1 2.1 2.2v6.9H59c1.2 0 2.2 1 2.2 2.1 0 1.2-1 2.2-2.2 2.2h-6.9v6.9c0 1.3-.9 2.2-2.1 2.1-1.2.1-2.1-.9-2.1-2.1v-6.9H41zm30.3 17.3c1.9 0 3.4 1.5 3.4 3.4v2.2H25.3v-2.2c0-1.9 1.6-3.4 3.4-3.4h42.6zm-46 11.5h49.5v14c0 1.9-1.6 3.4-3.4 3.4H28.7c-1.9 0-3.4-1.5-3.4-3.4v-14z"/></svg>