<svg xmlns="http://www.w3.org/2000/svg" viewBox="0 0 100 100"><path d="M86.8 38.3l-7.4-19.1c-1.4-3.7-4.3-6.8-10.2-6.8H30.6c-5.8 0-8.7 3.1-10.2 6.8l-7.3 19.1c-2.9.3-8.2 3.7-8.1 10.2v24.3h7.2v7.7c-.1 9.6 13.5 9.4 13.5 0v-7.7h48.5v7.7c.1 9.4 13.6 9.6 13.6 0v-7.7H95V48.5c-.1-6.6-5.3-9.9-8.2-10.2zM19.1 59.4c-4.2 0-7.5-3.4-7.4-7.7-.1-4.3 3.3-7.7 7.4-7.6 4.1 0 7.5 3.4 7.5 7.6 0 4.3-3.4 7.7-7.5 7.7zM20.7 38l5.5-15c.7-2.2 1.8-3.7 4.3-3.7h38.9c2.4.1 3.5 1.6 4.2 3.7l5.6 15H20.7zm60.2 21.4c-4.2 0-7.5-3.4-7.6-7.7.1-4.3 3.5-7.7 7.6-7.6 4.1-.1 7.4 3.4 7.4 7.6 0 4.3-3.3 7.7-7.4 7.7z"/></svg>