<svg xmlns="http://www.w3.org/2000/svg" viewBox="0 0 100 100"><path d="M64 34c-.4-1.3-1.1-2.1-2.5-2.2h-23c-1.4 0-2.1.9-2.5 2.2l-3.3 8.9h34.5L64 34zM50 5C25.2 5 5 25.1 5 50c0 24.8 20.2 45 45 45 24.9 0 45-20.2 45-45C95 25.1 74.9 5 50 5zm22.3 58.4V68c0 5.6-7.9 5.6-8 0v-4.6H35.7V68c0 5.6-8 5.6-8 0v-4.6h-4.2V49.1c0-3.9 3.1-5.9 4.8-6.1l4.4-11.3c.8-2.2 2.6-4 5.9-4h22.9c3.4.1 5.1 1.9 5.9 4L71.7 43c1.8.2 4.8 2.2 4.8 6.1v14.3h-4.2zm-40.5-17c-2.5 0-4.4 2.1-4.4 4.6 0 2.5 2 4.5 4.4 4.5 2.4 0 4.4-2 4.4-4.5s-2-4.6-4.4-4.6zm36.4 0c-2.5 0-4.5 2.1-4.5 4.6 0 2.5 2 4.5 4.5 4.5 2.4 0 4.4-2 4.4-4.5s-2-4.6-4.4-4.6z"/></svg>