<svg xmlns="http://www.w3.org/2000/svg" viewBox="0 0 100 100"><path d="M50 5C25.2 5 5 25.1 5 50s20.2 45 45 45c24.9 0 45-20.1 45-45S74.9 5 50 5zm0 53.3c-1.3 0-2.3 1-2.3 2.3v.4c0 1.4 1 2.3 2.3 2.3 1.3 0 2.3-1 2.3-2.3v-.4c0-1.3-1-2.3-2.3-2.3zm0-21.7c-1.9 0-3.5 1.8-3.3 3.7l1.1 13.9c.1 1.2 1 2.1 2.1 2.2 1.3.1 2.4-.9 2.5-2.2l1.1-13.9c.1-1.9-1.5-3.7-3.5-3.7zm25.1-7.1c1.4 0 2.5 1.2 2.5 2.6V68c0 1.5-1.1 2.5-2.5 2.5H55.7l-4.8 6.8c-.2.3-.5.5-.9.5s-.7-.3-.9-.5l-4.6-6.8H25.1c-1.5 0-2.6-1-2.6-2.5V32.1c0-1.4 1.1-2.6 2.6-2.6h50z"/></svg>