<svg xmlns="http://www.w3.org/2000/svg" viewBox="0 0 100 100"><path d="M94.8 42.4c-.3-.6-.8-1-1.5-1.2l-12.2-4c-1.3-.4-2.6.3-3.1 1.5-.4 1.2.3 2.6 1.5 3l6.8 2.2-22 11.2c3.5-5.2 4.2-12 1.2-18-3.1-6.3-9.4-10-16-10-2.7 0-5.4.6-7.9 1.9-8.8 4.4-12.4 15.1-8 24 3 6 9 9.6 15.3 9.8l-9.4 4.8L22.2 59c-1-.4-1.7-.3-2.2 0l-2.2 1.1-11.5 5.8c-1.2.6-1.7 2-1.1 3.2.6 1.2 2 1.7 3.2 1.1.1-.1 12.6-6.4 12.6-6.4l17.3 8.8c.7.3 1.3.4 2.1 0l48-24.3s-2.2 6.6-2.2 6.8c-.4 1.3.3 2.7 1.5 3 1.2.4 2.7-.3 3-1.5.1-.3 4-12.4 4-12.4.4-.5.3-1.2.1-1.8zM56.1 54.3c.4.9.1 2-.9 2.5-1 .4-2 .1-2.4-.9l-.9-1.9c-2.6.6-5.5-.2-6.7-2.6-.4-.9-.1-2 .9-2.5.9-.4 2-.1 2.4.8.6 1.3 2.6.8 3.5.4.9-.5 2.5-1.8 1.9-3-.6-1.2-2.6-.7-3.5-.3-1.9.9-3.8 1.1-5.5.5-1.4-.4-2.4-1.3-2.9-2.5-1.1-2.3-.2-5.1 2.1-6.9l-.9-1.8c-.4-.9-.1-2 .8-2.5 1.1-.4 2 0 2.5.9l.9 1.8c1-.2 2-.3 3-.1 1.7.4 3 1.3 3.7 2.7.4.9.1 2-.9 2.5-.9.4-2 .1-2.4-.9-.6-1.2-2.7-.7-3.5-.3-1.6.7-2.3 2.2-1.9 2.9.6 1.2 2.7.7 3.5.3 2.9-1.5 7-1 8.5 2 1.1 2.3.2 5.1-2.1 6.9l.8 2z"/></svg>