<svg xmlns="http://www.w3.org/2000/svg" viewBox="0 0 100 100"><path d="M84.1 64.9c-2.5 3.9-7.8 7.1-16 7.1H29.3s-3 0-3.1-2.6v-1.9s0-2.6 3.1-2.6h8.1c3 3.2 7.3 5.3 12.1 5.3 9.1 0 16.4-7.4 16.4-16.4 0-9.1-7.3-16.5-16.4-16.5-4.6 0-8.8 1.9-11.8 5H22.3c-.7 0-3.7.2-3.7-2.6v-1.9c0-.6.6-2.6 3.7-2.6h38.3c1.4 0 1.5-2.6.3-2.6H49.5c-3.1 0-3.1-2.6-3.1-2.6v-2c0-3.1 3.1-3.1 3.1-3.1h17.2C74.8 24.9 81.5 36 84 40h9.8C89.2 20 71.3 5 49.9 5 25 5 4.9 25.2 4.9 50c0 24.9 20.1 45 45 45 19.7 0 36.4-12.6 42.5-30.2h-8.3zm-34.6-9.4c-1.8 0-3.5-.7-4.6-1.8-.9-.9-1.4-2-1.4-3.2 0-2.3 1.9-4.2 4.4-4.7v-1.9c0-.9.7-1.7 1.7-1.7.9 0 1.6.8 1.6 1.7v1.9c2.4.6 4.4 2.4 4.4 4.8 0 .9-.8 1.6-1.7 1.6-.9 0-1.7-.7-1.7-1.7 0-1.3-1.9-1.6-2.7-1.7-1.6 0-2.7.9-2.7 1.7 0 1.3 1.9 1.7 2.7 1.7 2.9 0 6 2 6 5 0 2.3-1.9 4.2-4.4 4.7v1.9c0 .9-.8 1.6-1.7 1.6-.9 0-1.7-.7-1.7-1.6l.1-1.9c-2.4-.7-4.4-2.3-4.4-4.8 0-.9.8-1.7 1.7-1.7.9.1 1.7.8 1.7 1.7.1 1.3 1.7 1.7 2.7 1.7 1.6 0 2.7-.9 2.7-1.6 0-1.3-1.8-1.7-2.7-1.7zm-34.4-7.9c0-1.1.6-2.6 3.6-2.6h16.9c-1.4 2.3-2.3 4.8-2.5 7.6H18.7c-1.1 0-3.6.1-3.6-2.6v-2.4zm3.5 10.2c0-1.1.6-2.6 3.7-2.6h10.8c.2 2.6 1.1 5 2.3 7.1H22.3c-2.4 0-3.6-.9-3.7-2.6v-1.9z"/></svg>