<svg xmlns="http://www.w3.org/2000/svg" viewBox="0 0 100 100"><path d="M91.7 88.1v-8.5H48.2v8.5h43.5zm-36-15h28.6L95 50.3S87.7 44.1 82.3 36C76.9 27.6 75 18.7 75 12.4c0-1.1-3.3 0-3.3 0v39.2c1.8.5 3.3 2.1 3.3 4 0 2.3-2.2 4.3-5 4.3s-5-1.9-5-4.3c0-1.9 1.4-3.4 3.4-4V12.4s-3.4-1.1-3.4 0c0 6.3-2 15.1-7.5 23.5-5.3 8.1-12.6 14.4-12.6 14.4l10.8 22.8zm-38.1-11v-3.2h24.2L39 53c-1.3-2.8-.7-6.5 2.7-8.6H5v23c0 3.1 2.6 5.6 5.6 5.6h37.8l-5.1-10.9H17.6zm-7-36.7c-3 0-5.6 2.5-5.6 5.6v3.8h45.3c2.1-2.7 4.2-6.6 5.3-9.4h-45z"/></svg>