<svg xmlns="http://www.w3.org/2000/svg" viewBox="0 0 100 100"><path d="M50.4 5c-24.9 0-45 20.2-45 45 0 24.9 20.1 45 45 45s45-20.1 45-45c0-24.8-20.1-45-45-45zM17.9 38.1c0-2.2 1.8-3.9 3.9-3.9h31c-.8 2-2.3 4.7-3.7 6.5H17.9v-2.6zm0 9.2h25.3c-2.3 1.6-2.8 4.1-1.9 6l1.9 4.1H26.6v2.2h17.7l3.6 7.5h-26c-2.2 0-3.9-1.7-3.9-3.9V47.3zm29.9 30.2v-5.9h30v5.9h-30zm5.1-10.3l-7.4-15.8s5.1-4.3 8.7-9.9c3.7-5.8 5.1-11.9 5.1-16.2 0-.8 2.3 0 2.3 0v27.1c-1.4.4-2.3 1.5-2.3 2.8 0 1.6 1.6 2.9 3.5 2.9s3.5-1.3 3.5-2.9c0-1.3-1-2.4-2.3-2.8V25.3s2.3-.8 2.3 0c0 4.4 1.4 10.4 5.1 16.2 3.7 5.6 8.7 9.9 8.7 9.9l-7.4 15.8H52.9z"/></svg>