<svg xmlns="http://www.w3.org/2000/svg" viewBox="0 0 100 100"><path d="M37 39.5c-1.1 0-2.1-.3-2.7-1-.2-.2-.4-.5-.4-1 0-1-.9-2-2-2-1.2 0-2 .9-2 2 0 1.3.6 2.6 1.6 3.7 1 1 2.2 1.6 3.6 1.9l-.1 2.3c0 1.1.9 1.9 1.9 1.9 1.2 0 2-.8 2-1.9v-2.2c3.1-.8 5.2-2.9 5.2-5.6 0-1.5-.6-2.7-1.6-3.8-1.3-1.3-3.3-2.1-5.6-2.1-1.1 0-2.1-.4-2.7-1-.2-.2-.4-.5-.4-1 0-1 1.3-2 3.1-2 1 0 1.9.3 2.6.8.3.2.8.6.7 1.2 0 1.1.8 2 2 2 1 0 1.9-.8 1.9-1.9 0-1.7-.8-3.3-2.3-4.4-.8-.6-1.8-1-2.9-1.3v-2.3c.1-1-.8-1.9-2-1.9-1 .1-1.9.9-1.9 1.9V24c-3.1.7-5.3 2.9-5.3 5.6 0 1.4.6 2.7 1.6 3.8 1.4 1.3 3.4 2.2 5.6 2.2 1.1 0 2.2.3 2.8 1 .2.2.5.6.4 1 .2.9-1.1 1.9-3.1 1.9zm34.2 23.2v-6.1H28.8v6.1h42.4zm0 14.1v-6.1H28.8v6.1h42.4zm0-28.1v-6.1H52.8v6.1h18.4zm13.1-23.1L64.9 6.2C64.4 5.6 63.3 5 62 5H18.6c-2.3 0-4.1 1.8-4.1 4.1v81.8c0 2.3 1.8 4.1 4.1 4.1h62.8c2.2 0 4-1.8 4-4.1V28.5c.1-1.3-.4-2.3-1.1-2.9zM22.7 86.8V13.2H58v15.3c0 2.3 1.8 4.1 4 4.1h15.3v54.3H22.7z"/></svg>