<svg xmlns="http://www.w3.org/2000/svg" viewBox="0 0 100 100"><path d="M39.8 47c0 .8.7 1.4 1.5 1.5.8 0 1.4-.7 1.5-1.5v-1.6c2.2-.5 3.8-2.2 3.9-4.2 0-1-.5-2-1.2-2.8-1-1-2.5-1.6-4.1-1.6-.9 0-1.6-.3-2.1-.8-.2-.2-.4-.4-.4-.7 0-.7 1-1.5 2.4-1.5.7 0 1.4.3 1.9.6.2.2.6.5.6.9 0 .8.6 1.4 1.4 1.4.8 0 1.5-.6 1.5-1.4 0-1.2-.6-2.4-1.7-3.2-.6-.5-1.4-.8-2.2-1l.1-1.7c0-.8-.7-1.5-1.5-1.5-.8.1-1.5.7-1.5 1.5V31c-2.3.5-3.9 2.2-3.9 4.2 0 1 .4 2 1.2 2.8 1 1 2.5 1.6 4.1 1.6.8 0 1.6.3 2 .7.2.2.4.5.4.8 0 .7-1 1.4-2.4 1.4-.8 0-1.6-.3-2-.7-.2-.2-.4-.5-.4-.7 0-.8-.7-1.5-1.5-1.5s-1.5.6-1.5 1.4c0 1 .4 2 1.2 2.8.7.7 1.7 1.2 2.7 1.4V47zm22.9 2.2v-3.6h-11v3.6h11zM50 5C25.1 5 5 25.2 5 50c0 24.9 20.1 45 45 45s45-20.1 45-45C95 25.2 74.9 5 50 5zm20 29.9H59.4V24.3L70 34.9zm1.3 39.7c0 1.4-1.1 2.5-2.5 2.5H31.2c-1.4 0-2.5-1.1-2.5-2.5V25.5c0-1.4 1.1-2.5 2.5-2.5H55v14.1c0 1.3 1 2.3 2.2 2.3h14.1v35.2zm-8.6-16.9V54H37.3v3.7h25.4zm0 8.5v-3.7H37.3v3.7h25.4z"/></svg>