<svg xmlns="http://www.w3.org/2000/svg" viewBox="0 0 100 100"><path d="M95 28.1c0-.6-.6-1.3-1.2-1.3l-87.6.1c-.7 0-1.2.6-1.2 1.2v43.8c0 .6.6 1.3 1.2 1.3h87.7c.6 0 1.2-.6 1.2-1.3V28.1zM46.5 46.7c.7.9 2.1 1.3 3.3 1.3 2.7 0 5.1.8 6.9 2.6 1.2 1.3 1.9 2.9 1.9 4.6 0 3.2-2.6 6-6.4 6.6v2.8c0 1.4-1.1 2.2-2.4 2.2-1.3 0-2.3-1.1-2.3-2.2v-2.8c-1.6-.4-3.2-1.1-4.2-2.2-1.3-1.3-2.1-2.9-2.1-4.6 0-1.3 1.1-2.2 2.4-2.2 1.3 0 2.5 1.1 2.5 2.4 0 .5.2 1 .6 1.3.8.7 1.9 1 3.2 1 2.4 0 4-1.2 4-2.3 0-.7-.2-1-.5-1.2-.8-.8-1.9-1.3-3.4-1.3-2.6 0-5-.9-6.6-2.7-1.2-1.3-2-2.9-2-4.5 0-3.2 2.7-6 6.4-6.7V36c0-1.1 1.1-2.2 2.4-2.2 1.5 0 2.5 1.1 2.5 2.3v2.6c1.6.4 3.2 1.3 4.3 2.3 1.3 1.3 1.9 2.8 1.9 4.5 0 1.4-1.1 2.4-2.4 2.4-1.2 0-2.2-1-2.2-2.4 0-.6-.4-.9-.6-1.2-.7-.7-1.9-1.2-3.4-1.2-2.3 0-3.8 1.2-3.9 2.2-.4.7-.1 1.2.1 1.4z"/></svg>