<svg xmlns="http://www.w3.org/2000/svg" viewBox="0 0 100 100"><path d="M50.2 5.1C25.3 4.9 5.1 25 5 49.9c-.1 24.8 19.9 45 44.8 45.2 24.9.1 45.1-19.9 45.2-44.8.1-24.9-19.9-45.1-44.8-45.2zM18.9 66.6c-.5 0-.9-.4-.9-.9V34.6c0-.5.4-.9.9-.9h62.3c.5 0 .9.4.9.9v31.2c0 .5-.4.9-.9.9H18.9zM50 45.2c1 0 1.8.4 2.4.9.2.2.4.5.4.9 0 .9.8 1.7 1.7 1.7 1 0 1.7-.7 1.7-1.7 0-1.2-.5-2.3-1.4-3.2-.8-.8-1.9-1.4-3.1-1.7v-1.9c0-.9-.8-1.7-1.7-1.7-.9 0-1.7.8-1.7 1.7v1.9c-2.6.6-4.5 2.5-4.5 4.8-.1 1.2.5 2.3 1.4 3.2 1.2 1.2 2.9 1.9 4.8 1.9 1 0 1.9.4 2.4.9.2.2.4.5.4.9 0 .8-1.2 1.7-2.8 1.7-1-.1-1.8-.3-2.3-.8-.2-.2-.5-.6-.5-1 0-1-.8-1.7-1.7-1.7-.9 0-1.7.8-1.7 1.7 0 1.2.5 2.4 1.4 3.3.8.8 1.9 1.4 3.1 1.6v1.9c0 1 .8 1.7 1.7 1.7.9 0 1.7-.8 1.7-1.7v-1.9c2.6-.6 4.5-2.5 4.5-4.8 0-1.2-.5-2.4-1.4-3.3-1.2-1.2-2.9-1.9-4.8-1.9-1 0-1.9-.3-2.4-.9-.2-.2-.4-.5-.4-.9 0-.7 1.2-1.6 2.8-1.6z"/></svg>