<svg xmlns="http://www.w3.org/2000/svg" viewBox="0 0 100 100"><path d="M87.5 30.5h-75c-.7 0-1.1.4-1.1 1.2V69c0 .7.4 1.2 1.1 1.2h75.1c.6 0 1.1-.5 1.1-1.2V31.6c-.1-.7-.6-1.1-1.2-1.1zM49.9 56.2c2 0 3.4-1.1 3.4-2 0-1.4-2.1-2.1-3.3-2.1-2.3 0-4.5-.8-5.8-2.2-1.2-1.1-1.7-2.5-1.7-4 0-2.7 2.3-5.1 5.5-5.8v-2.3c0-1.1.9-2 2-2 1.2 0 2.1.9 2.1 2.1v2.3c2.6.7 5.4 2.7 5.4 5.8 0 1.1-.9 2-2.1 2-1.1 0-2-1-2-2 0-1.5-2.2-2-3.4-2-2 0-3.4 1-3.4 2 0 1.5 2.1 2 3.4 2 2.3 0 4.3.8 5.7 2.3 1.1 1.1 1.7 2.5 1.7 3.9 0 2.9-2.3 5.1-5.5 5.8v2.4c0 1.1-.9 2-2 2-1.2 0-2.1-.9-2.1-2.1V60c-2.7-.6-5.4-2.8-5.3-5.9 0-1.1.9-2 2-2s2 .9 2 2.1c0 1.5 2 2 3.4 2zm2.6-41.9c1.1 1.1 5.5 5.4 5.5 5.5 1.1 1 2.8 1 3.8 0 1.1-1.1 1.1-2.8 0-3.8 0-.1-10.1-10.2-10.1-10.2-1.1-1.1-2.8-1.1-3.8 0L37.8 15.9c-1 1-1 2.7 0 3.8 1.1 1 2.8 1 3.9 0 .2-.3 5.5-5.5 5.5-5.5v9c0 1.5 1.3 2.7 2.7 2.7 1.5 0 2.7-1.2 2.7-2.7v-8.9zm-5.3 71.5c-1.1-1.1-5.5-5.4-5.5-5.5-1.1-1-2.8-1-3.8 0-1.1 1.1-1.1 2.8 0 3.8 0 .1 10.1 10.1 10.1 10.1 1.1 1.1 2.8 1.1 3.8 0l10.1-10.1c1-1 1-2.7 0-3.8-1.1-1-2.8-1-3.9 0-.2.3-5.5 5.5-5.5 5.5v-9c0-1.5-1.3-2.7-2.7-2.7-1.5 0-2.7 1.2-2.7 2.7v9z"/></svg>