<svg xmlns="http://www.w3.org/2000/svg" viewBox="0 0 100 100"><path d="M50.2 5C25.4 4.9 5.1 25 5 49.8 4.9 74.6 24.9 94.9 49.8 95c24.9.1 45.1-19.9 45.2-44.8C95.1 25.4 75.1 5.1 50.2 5zm-.3 50.3c-1.1 0-2.8-.5-2.8-1.7 0-1-.8-1.7-1.7-1.7-.9 0-1.7.7-1.7 1.7-.1 2.5 2.2 4.4 4.4 4.9v1.9c0 1 .8 1.7 1.8 1.7.9 0 1.7-.7 1.7-1.6v-2c2.6-.6 4.5-2.5 4.5-4.8 0-1.2-.5-2.3-1.4-3.2-1.2-1.2-2.9-1.9-4.7-1.9-1.1 0-2.8-.4-2.8-1.7 0-.9 1.2-1.7 2.8-1.7 1 .1 2.8.4 2.8 1.7 0 .9.8 1.7 1.7 1.7 1 0 1.7-.8 1.7-1.7 0-2.6-2.3-4.2-4.4-4.8v-1.9c0-1-.7-1.7-1.7-1.7-.9 0-1.7.8-1.7 1.7V42c-2.6.6-4.5 2.6-4.5 4.8 0 1.3.5 2.4 1.5 3.3 1 1.2 2.8 1.8 4.7 1.8 1 0 2.8.6 2.8 1.7-.1.8-1.3 1.7-3 1.7zm2.2-27.2c0 1.2-1 2.2-2.2 2.2-1.3 0-2.3-1-2.3-2.2v-7.4s-4.4 4.3-4.5 4.5c-.9.9-2.3.9-3.2 0-.8-.9-.8-2.3 0-3.1.3-.2 8.4-8.4 8.4-8.4.8-.9 2.3-.9 3.2 0l8.3 8.3c.9.9.9 2.3 0 3.2-.9.9-2.3.9-3.2 0-.1-.1-3.6-3.7-4.6-4.5v7.4zm-4.4 44.2c0-1.2 1-2.2 2.3-2.2 1.2 0 2.2 1 2.2 2.2v7.4l4.5-4.5c.9-.9 2.3-.9 3.2 0 .8.9.8 2.3 0 3.1l-8.4 8.4c-.9.9-2.3.9-3.2 0L40 78.4c-.9-.9-.9-2.3 0-3.2.9-.9 2.3-.9 3.2 0 0 .1 3.6 3.7 4.5 4.5v-7.4zM81 34.1c.5 0 1 .4 1 1v30.8c0 .6-.5 1-1 1H19c-.6 0-.9-.4-.9-1V35.1c0-.6.3-1 .9-1h62z"/></svg>