<svg xmlns="http://www.w3.org/2000/svg" viewBox="0 0 100 100"><path d="M69.3 37.9v-4.1H40.1v4.1h29.2zM49.9 5C25.1 5 5 25.2 5 50.1c0 14.6 7 27.6 17.8 35.8V26.3c0-1.2 1-2.3 2.3-2.3 1.2 0 2.3 1.1 2.3 2.3v3.1h48.4c1.2 0 2.3 1.1 2.3 2.4 0 1.2-1.1 2.1-2.3 2.1h-4.3V38h5.8c1.2 0 2.2 1.1 2.2 2.4v26.9c0 1.3-1 2.3-2.2 2.3H32c-1.2 0-2.1-1.1-2.1-2.3v-27c0-1.3.9-2.4 2.1-2.4h5.8v-4.1H27.3v55C34.6 93 42.2 95 49.9 95 74.8 95 95 74.9 95 50.1 95 25.2 74.8 5 49.9 5zM65 59.2h3.9c3 0 6-2.2 6-5.4 0-3.9-2.5-5.6-6.4-5.6H65v11zm7.3-5.6c0 2.1-1.5 3.3-3.8 3.4h-1.3v-6.5h1.4c1.9 0 3.7.9 3.7 3.1zm-29 .1c0 3.6 2.5 5.8 5.9 5.8 3.4 0 5.9-2.2 5.9-5.8 0-3.5-2.5-5.7-5.9-5.7-3.4 0-5.9 2.2-5.9 5.7zm9.4 0c0 2-1.5 3.5-3.4 3.5s-3.4-1.6-3.4-3.5c0-2 1.6-3.5 3.4-3.5 1.9 0 3.4 1.6 3.4 3.5zm-17.9-2.2c0 1.7 1.1 2.3 2.5 2.9.9.3 2.6.6 2.6 1.6 0 .8-.8 1.2-1.6 1.2s-1.7-.4-2.1-1.2l-1.7 2.1c1 .9 2.2 1.3 3.6 1.3 2 0 4.2-1.2 4.2-3.6 0-1.5-1-2.5-2.5-3-1.8-.6-2.5-1-2.5-1.7 0-.8.8-1.1 1.6-1.1.6 0 1.4.2 1.8.6l1.6-1.8c-.8-.5-1.9-.8-3.3-.8-2.1 0-4.2 1.2-4.2 3.5zm22.1 7.7h6.7V57h-4.4v-8.7h-2.4v10.9z"/></svg>