<svg xmlns="http://www.w3.org/2000/svg" viewBox="0 0 100 100"><path d="M77.3 23.7v-5.4H83c1.6 0 3.1-1.2 3.1-2.9s-1.5-3.1-3.1-3.1H18V8.1C18 6.5 16.6 5 15 5c-1.7 0-3 1.5-3 3.1V92c0 1.7 1.2 3 3 3 1.6 0 3.1-1.2 3.1-3V18.3h14.1v5.4h-7.7c-1.6 0-2.9 1.4-2.9 3.1v36.1c0 1.7 1.2 3.1 2.9 3.1H85c1.6 0 3-1.4 3-3.1v-36c0-1.7-1.4-3.1-3-3.1h-7.7zm-42.1-5.4h39.1v5.4H35.2v-5.4zm33.4 33.9V37.5h4.7c5.3 0 8.7 2.3 8.7 7.5 0 4.5-4.1 7.2-8.1 7.2h-5.3zm-36.1.3c-1.9 0-3.6-.5-4.8-1.8l2.3-2.6c.6 1 1.8 1.5 2.9 1.5 1.1 0 2.2-.6 2.2-1.6 0-1.4-2.3-1.8-3.5-2.2-1.9-.8-3.4-1.7-3.4-3.9 0-3.1 2.8-4.8 5.5-4.8 1.9 0 3.4.5 4.5 1.5L36 41.1c-.5-.6-1.6-.9-2.3-.9-1.1 0-2.2.4-2.2 1.5 0 .9 1 1.6 3.4 2.2 2.1.6 3.3 2 3.3 4 0 3.1-3.1 4.6-5.7 4.6zm25.2-.3V37.5h3.2v11.7h5.9v3h-9.1zm14-11.7v8.7h1.7c3.1-.1 5.1-1.7 5.1-4.5 0-3-2.5-4.2-5-4.2h-1.8zm-28.8 4.4c0 2.6 2 4.7 4.5 4.7s4.6-2.1 4.6-4.7c0-2.7-2.1-4.8-4.6-4.8-2.5.1-4.5 2.2-4.5 4.8zm-3.3 0c0-4.7 3.4-7.7 7.9-7.7 4.6 0 8 3 8 7.7 0 4.8-3.4 7.7-8 7.7-4.6-.1-7.9-3-7.9-7.7z"/></svg>