<svg xmlns="http://www.w3.org/2000/svg" viewBox="0 0 100 100"><path d="M50 5C25.2 5 5 25.1 5 50s20.2 45 45 45c24.9 0 45-20.1 45-45S74.9 5 50 5zm22.5 31.3v-3.2h-9.7v3.2h9.7zm0 14.3v-3.2h-9.7v3.2h9.7zm0-7.1v-3.3h-9.7v3.3h9.7zm-40.3 4.7c.5-.6 1.4-.6 2 0 .5.5.5 1.3 0 1.9L30 54.3c-.2.3-.7.4-1 .4-.2 0-.4 0-.6-.1-.5-.2-.9-.7-.9-1.3v-7.1c0-.8.6-1.5 1.4-1.5.8 0 1.4.7 1.4 1.5V50l1.9-1.8zm40.3 9.7v-3.2H50.3v3.2h22.2zm0 7.5v-3.2H50.3v3.2h22.2zM53.7 44.7c-.9 0-2.1-.3-2.1-1.2 0-.8-.6-1.3-1.3-1.3-.7 0-1.3.6-1.3 1.2-.1 2 1.6 3.3 3.3 3.7v1.5c0 .8.6 1.3 1.3 1.3.7 0 1.3-.6 1.3-1.3v-1.5c2-.4 3.4-1.8 3.4-3.6 0-.9-.4-1.8-1.1-2.4-.9-1-2.1-1.4-3.5-1.4-.9 0-2.2-.4-2.2-1.3 0-.6.9-1.2 2.2-1.2.8 0 2.1.3 2.1 1.2 0 .7.6 1.3 1.3 1.3.8 0 1.3-.6 1.3-1.3 0-2-1.7-3.2-3.3-3.6v-1.4c0-.8-.6-1.3-1.3-1.3-.8 0-1.3.5-1.3 1.2v1.5c-2 .4-3.4 1.9-3.4 3.6 0 .9.4 1.8 1.1 2.5.8.9 2.2 1.4 3.6 1.4.8 0 2.1.4 2.1 1.3-.1.5-1 1.1-2.2 1.1zM28.9 64.2c6.1 0 10.9-4.9 10.9-10.9S35 42.5 28.9 42.5c-6.1 0-10.9 4.9-10.9 10.8s4.8 10.9 10.9 10.9zm11-19.4c1.9 2.3 3 5.2 3 8.4 0 7.7-6.2 14-13.8 14-7.8 0-13.9-6.3-13.9-14 0-7.1 5.5-13.1 12.5-13.8v-2.9h-1.3c-.7 0-1.3-.6-1.3-1.3 0-.7.6-1.2 1.3-1.2h5c.6 0 1.2.5 1.2 1.2 0 .8-.6 1.3-1.2 1.3H30v2.8c2.7.3 5.1 1.2 7.2 2.7l1.3-1.3c.8-.7 1.9-.7 2.7 0 .8.7.8 2 0 2.7l-1.3 1.4zm36.5-17.1c1.2 0 2.1.8 2.1 2v40.6c0 1.1-.9 2-2.1 2H45.2c-1.1 0-2-.9-2-2v-6c2.3-3 3.9-6.9 3.9-11 0-2.7-.7-5.3-1.9-7.7.7-1 1-2.2 1-3.5 0-1.7-.6-3.3-1.8-4.5-.4-.3-.8-.7-1.2-.9v-7c0-1.2.9-2 2-2h31.2z"/></svg>