<svg xmlns="http://www.w3.org/2000/svg" viewBox="0 0 100 100"><path d="M47.8 18.4c-1.6 0-2.9 1.2-2.9 2.8v10c.7.4 1.2.9 1.7 1.3 1.8 1.7 2.6 4 2.6 6.4 0 1.8-.5 3.5-1.4 4.9 1.7 3.4 2.5 7 2.5 10.9 0 5.8-2.1 11.3-5.4 15.6v8.5c0 1.5 1.3 2.7 2.9 2.7h44.3c1.6 0 2.9-1.2 2.9-2.7V21.2c0-1.6-1.3-2.8-2.9-2.8H47.8zm-5.7 22.4c1.1-1 1.1-2.8 0-3.7-1.1-1.1-2.7-1.1-3.8 0l-1.8 1.8c-3-2.2-6.5-3.5-10.3-3.9v-4h1.9c.9 0 1.7-.8 1.7-1.8 0-.9-.9-1.7-1.7-1.7h-7.2c-1 0-1.8.7-1.8 1.7 0 1.1.8 1.8 1.8 1.8h1.8v4.1C12.8 36 5 44.5 5 54.7c0 10.8 8.7 19.7 19.7 19.7 10.8 0 19.7-9 19.7-19.7 0-4.6-1.6-8.8-4.2-12l1.9-1.9zM24.6 70.2c-8.6 0-15.5-7-15.5-15.5S16 39.2 24.6 39.2c8.7 0 15.5 7 15.5 15.5s-6.8 15.5-15.5 15.5zm30.3 1.7v-4.5h31.6v4.5H54.9zm0-10.6v-4.5h31.6v4.5H54.9zM26.8 50v-5.4c0-1.1-.9-2-2-2s-2 .9-2 2v10.1c0 .8.5 1.5 1.2 1.8.2.1.5.1.8.1.5 0 1.1-.1 1.4-.5l5.9-5.9c.7-.9.7-2.1 0-2.8-.9-.8-2.1-.8-2.8 0L26.8 50zm45.8-9.2v-4.6h13.9v4.6H72.6zm0-10.1v-4.6h13.9v4.6H72.6zm0 20.1v-4.5h13.9v4.5H72.6zm-12.9-8.2c1.8 0 3-.9 3-1.7 0-1.3-1.8-1.9-2.9-1.9-2.1 0-3.9-.7-5.1-1.9-1-1-1.5-2.2-1.5-3.5 0-2.4 2.1-4.5 4.9-5.1v-2c0-1 .8-1.8 1.8-1.8s1.8.8 1.8 1.8v2c2.4.6 4.8 2.3 4.8 5.1 0 1-.8 1.8-1.9 1.8-.9 0-1.8-.9-1.8-1.8 0-1.3-1.9-1.7-3-1.7-1.8 0-3 .9-3 1.7 0 1.3 1.8 1.8 3 1.8 2 0 3.8.7 5.1 2 .9.9 1.5 2.2 1.5 3.5 0 2.5-2 4.4-4.8 5.1v2.1c0 1-.8 1.7-1.8 1.7S58 49 58 48v-2c-2.4-.5-4.8-2.5-4.8-5.2 0-.9.8-1.8 1.8-1.8s1.8.8 1.8 1.9c-.1 1.3 1.7 1.7 2.9 1.7z"/></svg>