<svg xmlns="http://www.w3.org/2000/svg" viewBox="0 0 100 100"><path d="M50 5C25.2 5 5 25.2 5 50c0 24.9 20.2 45 45 45 24.9 0 45-20.1 45-45C95 25.2 74.9 5 50 5zM34.1 49.8l.4 10.5C32.2 58.7 31 56.8 31 55v-6.7l3.1 1.5zm4.1 29c0 1.4-.9 2.5-2.2 2.7-1.3.1-2.6-.9-2.6-2.7l.8-9.9c.1-.9.8-1.6 1.7-1.5.9.2 1.5.8 1.5 1.5l.8 9.9zm12.4-20.7c.2 0 .3-.1.5-.1l19.4-9.7v6.8c0 2.3-2 4.7-5.6 6.5-7.5 3.8-19.7 3.8-27.6.3l.3-10.1L50.1 58c.3.1.4.1.5.1zM35 47.5c-.3.2-.5.4-.7.6l-14-7.1 30.3-15.1L80.9 41 50.6 56l-12.4-6 14.6-7.3c.9-.5 1.3-1.5.9-2.5-.6-.9-1.6-1.4-2.6-.9L35 47.5z"/></svg>