<svg xmlns="http://www.w3.org/2000/svg" viewBox="0 0 100 100"><path d="M9.7 29.6c-2.6 0-4.7 2.1-4.7 4.9v3.1h47c1.6-3.1 3.8-5.8 6.6-8H9.7zM49 45.8H5v19.8c0 2.7 2.2 4.9 4.7 4.9h48.9c-7.1-5.6-11.3-15.2-9.6-24.7zM15.7 61.1v-2.8h29v2.8h-29zm58.9-31.5c-11.2 0-20.4 9.1-20.4 20.3 0 11.4 9.1 20.5 20.4 20.5 11.2 0 20.4-9.2 20.4-20.5 0-11.2-9.1-20.3-20.4-20.3zm0 26.6c2 0 3.5-1.1 3.5-2 0-1.6-2.2-2.1-3.4-2.1-2.4 0-4.5-.8-5.9-2.2-1.1-1.2-1.7-2.5-1.7-4.1 0-2.8 2.4-5.2 5.6-5.9v-2.4c0-1.1.9-2 2.1-2 1.2 0 2.1.9 2.1 2.1v2.3c2.7.8 5.5 2.7 5.5 5.9 0 1.2-.9 2.1-2.2 2.1-1.1 0-2-1-2-2.1 0-1.5-2.2-2-3.4-2-2 0-3.5 1-3.5 2 0 1.6 2.1 2.1 3.5 2.1 2.3 0 4.4.8 5.9 2.3 1.1 1.1 1.7 2.5 1.7 4 0 2.9-2.4 5.2-5.6 5.9v2.5c0 1.1-.9 2-2 2-1.2 0-2.1-.9-2.1-2.2v-2.3c-2.8-.7-5.6-2.9-5.4-6 0-1.1.9-2 2-2 1.2 0 2.1.9 2.1 2.1-.2 1.7 2 2 3.2 2z"/></svg>