<svg xmlns="http://www.w3.org/2000/svg" viewBox="0 0 100 100"><path d="M50 5C25.2 5 5 25.2 5 50c0 24.9 20.2 45 45 45 24.9 0 45-20.1 45-45C95 25.2 74.9 5 50 5zm-.4 54.5v-2.3H26.1v2.3h23.5zm24.2-3.9c-1 0-2.9-.3-2.9-1.6 0-1-.8-1.7-1.7-1.7-.9 0-1.6.7-1.6 1.6-.1 2.6 2.2 4.4 4.4 4.9v1.9c0 1 .8 1.8 1.8 1.8.9 0 1.6-.8 1.6-1.7v-1.9c2.7-.6 4.5-2.5 4.5-4.8 0-1.2-.5-2.4-1.3-3.2-1.3-1.2-3-1.9-4.8-1.9-1.2 0-2.9-.4-2.9-1.7 0-.9 1.2-1.7 2.9-1.7 1 0 2.8.4 2.8 1.7 0 .9.8 1.7 1.7 1.7 1 0 1.7-.8 1.7-1.7 0-2.6-2.3-4.2-4.4-4.8v-1.9c0-1-.8-1.7-1.7-1.7-.9 0-1.7.8-1.7 1.7v1.9c-2.6.6-4.5 2.5-4.5 4.7 0 1.3.5 2.4 1.4 3.3 1.1 1.2 2.8 1.9 4.8 1.9.9 0 2.7.4 2.7 1.7 0 .6-1.2 1.5-2.8 1.5zm-13-21.5c-2.2 1.9-4.1 4-5.3 6.5h-38v-2.5c0-2.3 1.8-4 3.8-4h39.5zm-7.7 13.1c-1.4 7.6 2.1 15.4 7.7 19.9H21.4c-2.1 0-3.8-1.8-3.8-4v-16h35.5zm20.8-13.1c9 0 16.4 7.3 16.4 16.4 0 9.1-7.4 16.6-16.4 16.6-9.1 0-16.6-7.5-16.6-16.6 0-9.1 7.5-16.4 16.6-16.4z"/></svg>