<svg xmlns="http://www.w3.org/2000/svg" viewBox="0 0 100 100"><path d="M50 5C25.1 5 5 25.1 5 50s20.1 45 45 45 45-20.1 45-45S74.9 5 50 5zm.1 72.1c-13.6 0-24.6-11-24.6-24.5 0-12.8 9.8-23.3 22.3-24.4v-5.5h-2.2c-1.2 0-2.2-1-2.2-2.2 0-1.2 1-2.2 2.2-2.2h8.7c1.2 0 2.2 1 2.2 2.2 0 1.2-1 2.2-2.2 2.2h-2.2v5.5c4.7.4 9.1 2.2 12.7 4.9l2.9-2.8c1.3-1.3 3.4-1.3 4.6-.1 1.3 1.3 1.3 3.4 0 4.6l-2.9 2.9c3.2 4.1 5.1 9.3 5.1 14.9.2 13.5-10.8 24.5-24.4 24.5zm0-44.1c-10.8 0-19.6 8.8-19.6 19.6s8.7 19.6 19.6 19.6c10.8 0 19.6-8.8 19.6-19.6S60.9 33 50.1 33zm-3 16.5c.6.6 1.6 1 2.7 1 2.2 0 4.1.8 5.5 2.1 1 1.1 1.6 2.4 1.6 3.7 0 2.7-2.2 4.9-5.2 5.5V64c0 1.1-.9 1.9-1.9 1.9-1.1 0-2-.9-1.9-1.9v-2.2c-1.4-.3-2.6-.9-3.5-1.9-1.1-1-1.6-2.3-1.6-3.7 0-1.1.9-1.9 2-1.9s1.9.9 1.9 1.9c0 .4.2.8.5 1 .6.6 1.7 1 2.7 1 1.9 0 3.2-1.1 3.2-2 0-.4-.2-.8-.5-1-.6-.6-1.6-1-2.7-1-2.1 0-4.1-.8-5.4-2.1-1.1-1.1-1.6-2.4-1.6-3.7 0-2.7 2.2-4.9 5.1-5.5v-2.2c0-1.1.9-1.9 2-1.9s1.9.9 1.9 2V43c1.1.3 2 .7 2.8 1.3 1.5 1.1 2.3 2.7 2.3 4.3 0 1.1-.9 1.9-2 1.9s-1.9-.9-1.9-1.9c0-.6-.5-1-.7-1.2-.6-.5-1.5-.8-2.5-.8-1.9 0-3.2 1-3.2 2-.1.4.2.7.4.9z"/></svg>