<svg xmlns="http://www.w3.org/2000/svg" viewBox="0 0 100 100"><path d="M84.2 30.4c2-2 2-5.1 0-7.1-1.9-2-5.1-2-7.1 0l-4.3 4.4c-5.6-4.2-12.3-7-19.5-7.7v-8.3h3.5c1.8 0 3.1-1.6 3.1-3.4 0-1.8-1.4-3.4-3.1-3.4H43.3c-1.8 0-3.4 1.6-3.4 3.4 0 1.8 1.6 3.4 3.4 3.4h3.3V20c-19.2 1.8-34.2 17.9-34.2 37.6 0 20.7 16.8 37.5 37.5 37.5 20.8 0 37.6-16.8 37.6-37.5 0-8.6-3-16.4-7.7-22.9l4.4-4.3zm-34.3 57c-16.5 0-29.8-13.4-29.8-29.8 0-16.6 13.3-30.1 29.8-30.1C66.6 27.5 80 41 80 57.6 80 74 66.6 87.4 49.9 87.4zm-.4-38.9c1.5.1 2.9.4 3.7 1.2.5.3 1.2.8 1.2 1.8 0 1.6 1.3 2.9 2.9 2.9 1.6 0 3-1.4 3-2.9 0-2.4-1.3-4.9-3.4-6.5-1.3-1-2.7-1.6-4.4-1.9v-3.3c0-1.7-1.4-3.1-2.9-3.1-1.7 0-3 1.4-3 3V43c-4.5.9-7.9 4.3-7.9 8.3 0 2.2.9 4.2 2.5 5.8 2 2 5 3.2 8.3 3.3 1.6 0 3.3.5 4.2 1.4.2.4.8.9.8 1.5-.1 1.4-2.1 2.9-5 2.9-1.6 0-3.2-.6-4.1-1.6-.4-.3-.8-.8-.8-1.5 0-1.5-1.3-2.9-2.9-2.9-1.7 0-3 1.2-3 2.9 0 2.1.8 4.1 2.5 5.7 1.5 1.4 3.3 2.4 5.3 2.9v3.4c-.1 1.6 1.3 2.9 2.9 2.9 1.7 0 3-1.3 3-2.9v-3.4c4.6-.9 7.8-4.3 7.8-8.4 0-2.1-.9-4.1-2.4-5.6-1.9-2.1-5-3.3-8.3-3.3-1.7 0-3.3-.5-4.2-1.5-.4-.4-.8-.9-.8-1.6.1-1.2 2.1-2.8 5-2.8z"/></svg>