<svg xmlns="http://www.w3.org/2000/svg" viewBox="0 0 100 100"><path d="M50 5C25.2 5 5 25.1 5 50s20.2 45 45 45c24.9 0 45-20.1 45-45S74.9 5 50 5zM34.4 51.7l2.3-3.6h.1v3.6h-2.4zm9.2-1.1c0-1.7.4-3.1 1.5-3.1 1 0 1.4 1.4 1.4 3.1 0 1.7-.4 3.1-1.4 3.1-1.1 0-1.5-1.4-1.5-3.1zm11.2 4.8v-9.5h-2l-3.2 2.2 1.1 1.6 1.9-1.4v7.1h2.2zm-14.6-1.8v-1.9h-1.3v-5.8h-2.7l-4 5.7v2h4.6v1.8h2.1v-1.8h1.3zM63 55.4h3l-4.4-5.2 4.2-4.3h-2.9l-3.5 3.8v-3.8H57v9.5h2.3V51l3.7 4.4zm-7.3-19.2c1 .3 1.9-.2 2.2-1.2.3-.9-.2-1.7-1.1-2.1-3.1-1.1-5.8-1.7-8-1.7-2.6 0-5.2.6-8.3 1.7-.9.4-1.3 1.3-1 2.1.4 1.1 1.5 1.4 2.2 1.1 2.7-1 4.9-1.5 7.1-1.5 2 .1 4.2.5 6.9 1.6zM41.3 50.6c0 3.1 1.5 5.1 3.8 5.1 2.8 0 3.7-2 3.7-5.1 0-3.2-1-5.1-3.7-5.1-2.3 0-3.8 1.4-3.8 5.1zm37.9 4c0 1.3-1 2.4-2.5 2.4h-5.1c-1.4 3.3-3.5 6.3-6.3 8.6l-.6 9.6h-8l-.6-4.8c-2.4.8-4.8 1-7.3 1-2.6 0-5-.3-7.3-1l-.5 4.9h-7.7l-1-9.5c-3.6-3-6.2-7-7.3-11.4-2.3-.2-4.2-2-4.2-4.3 0-2.4 1.9-4.3 4.2-4.4 2.3-9.9 12-17.4 23.9-17.4 3.9 0 7.6.8 10.8 2.3 0 0 9.4-6.8 11.4-5.7 2.1 1-6.6 5-1.6 13.9 1 1.7 1.6 2.6 2.2 3.8h5c1.4 0 2.4 1.1 2.4 2.5l.1 9.5z"/></svg>