<svg xmlns="http://www.w3.org/2000/svg" viewBox="0 0 100 100"><path d="M29.6 52.6v-5.5h-.1L26 52.6h3.6zM95 42.3c0-2.2-1.6-3.8-3.7-3.8h-7.9c-1-1.9-1.9-3.3-3.4-5.7-7.8-13.7 5.6-19.9 2.4-21.5C79.3 9.6 64.9 20 64.9 20c-5.1-2.2-10.8-3.5-16.8-3.5-18.2.1-33.3 11.6-36.6 26.9-3.6 0-6.5 3-6.5 6.7 0 3.5 2.9 6.3 6.5 6.5 1.7 6.9 5.6 13.1 11.3 17.7L24.2 89H36l.9-7.3c3.7 1 7.3 1.4 11.3 1.4 3.8 0 7.6-.4 11.3-1.6l.9 7.5h12.5l.8-14.9c4.3-3.6 7.5-8.3 9.7-13.3l7.9-.1c2.2 0 3.8-1.7 3.8-3.7V42.3zM32.9 55.5v2.8h-3.3v-2.8h-7v-3l6.2-8.8h4.1v8.9h2v2.9h-2zm20.9 2.8v-11L51 49.6l-1.6-2.5 4.9-3.4h3.1v14.6h-3.6zm4.9-29.6c-4.1-1.7-7.5-2.3-10.5-2.3-3.4 0-6.8.7-11 2.3-1.1.4-2.8-.1-3.3-1.7-.5-1.4.2-2.6 1.5-3.2 4.7-1.7 8.7-2.7 12.8-2.8 3.5.1 7.7 1 12.4 2.6 1.3.6 2 1.9 1.6 3.2-.6 1.6-2.1 2.3-3.5 1.9zm5.6 22.8v6.8h-3.5V43.7h3.5v5.9l5.2-5.9h4.6l-6.5 6.5 6.9 8.1h-4.7l-5.5-6.8zM40 50.8c0 2.6.7 4.9 2.3 4.9 1.6 0 2.2-2.2 2.2-4.9 0-2.6-.6-4.9-2.2-4.9-1.6.1-2.3 2.3-2.3 4.9zm-3.4.1c0-5.7 2.3-7.8 5.7-7.8 4.3 0 5.8 2.8 5.8 7.8 0 4.7-1.5 7.8-5.8 7.8-3.3 0-5.7-3-5.7-7.8z"/></svg>