<svg xmlns="http://www.w3.org/2000/svg" viewBox="0 0 100 100"><path d="M50 5C25.1 5 5 25.2 5 50c0 24.9 20.1 45 45 45s45-20.1 45-45C95 25.2 74.9 5 50 5zm-6.1 67.1c-.1.8-.7 1.4-1.4 1.4-.4 0-.8-.1-1-.4L28.2 59.9h-10c-1.9 0-3.5-1.6-3.5-3.5V43.7c0-2 1.6-3.5 3.5-3.5h10L41.5 27c.4-.4 1-.6 1.5-.3.6.2.9.7.9 1.3v44.1zm3.6-15.6c3.6-3.6 3.6-9.4 0-13l4.4-4.3c5.9 5.9 5.9 15.7 0 21.6l-4.4-4.3zm8.6 8.7c8.3-8.3 8.3-21.9 0-30.3l4.3-4.3c10.7 10.7 10.7 28.2 0 38.9l-4.3-4.3zm8.7 8.6C78 60.7 78 39.3 64.8 26.2l4.3-4.3c15.5 15.5 15.5 40.8 0 56.2l-4.3-4.3z"/></svg>