<svg xmlns="http://www.w3.org/2000/svg" viewBox="0 0 100 100"><path d="M39.4 62.2l9.3 2.4 1-4-9.3-2.3-1 3.9zM50 5C25.2 5 5 25.2 5 50c0 24.9 20.2 45 45 45 24.9 0 45-20.1 45-45C95 25.2 74.9 5 50 5zm27.2 59.4c0 .8-.3 1.5-.9 1.9-.5.4-1 .5-1.5.5-.2 0-.4-.1-.6-.1l-20.3-5.1-1.5 6c-.2.6-.5 1.1-1 1.4-.4.2-.8.3-1.2.3-.2 0-.4 0-.5-.1l-13.6-3.4c-1.2-.3-1.9-1.5-1.6-2.7l1.5-6-4.7-1.1h-6.1c-.6 0-1.3-.3-1.7-.7-.5-.5-.7-1.1-.7-1.7V44c0-1.4 1.1-2.4 2.4-2.4h6.1l42.9-10.7c.7-.2 1.5 0 2.1.5.6.5.9 1.2.9 1.9v31.1z"/></svg>