<svg xmlns="http://www.w3.org/2000/svg" viewBox="0 0 100 100"><path d="M58.6 62c1.8 0 3.2-1.4 3.2-3.2v-6.3c0-1.8-1.5-3.2-3.2-3.2-1.8 0-3.2 1.5-3.2 3.2v6.3c0 1.8 1.4 3.2 3.2 3.2zM29 70.9h41.9V40.4H29v30.5zm22.6-18.4c0-3.9 3.2-7 7-7 3.9 0 7 3.1 7 7v6.3c0 3.9-3.1 7-7 7-3.8 0-7-3.1-7-7v-6.3zm-10.2 3.2c-.2 0-.4-.1-.6-.1l-.1-.1c-.2-.1-.4-.2-.5-.3 0 0-.1 0-.1-.1-.2-.2-.3-.4-.5-.5 0-.1 0-.1-.1-.1-.1-.2-.2-.4-.2-.6V53.6v-.5c.1 0 .1-.1.1-.1 0-.3.2-.5.3-.6v-.1l2.6-3.3h-6.2c-1.1 0-1.9-.9-1.9-1.9 0-1.1.9-1.9 1.9-1.9h10.1c.8 0 1.4.4 1.7 1.1.4.7.3 1.5-.2 2l-3.3 4.1c2.2 1.2 3.7 3.5 3.7 6.1 0 3.9-3.1 7-7 7s-7-3.1-7-7c0-1.1.9-1.9 1.9-1.9 1.1 0 1.9.9 1.9 1.9 0 1.8 1.4 3.2 3.2 3.2s3.2-1.4 3.2-3.2c.2-1.4-1.2-2.8-2.9-2.8zM50 5C25.1 5 5 25.1 5 50s20.1 45 45 45 45-20.1 45-45S74.9 5 50 5zm24.8 33.4v34.4c0 1.1-.9 1.9-1.9 1.9H27.1c-1.1 0-1.9-.9-1.9-1.9V27.1c0-1.1.9-1.9 1.9-1.9h45.7c1.1 0 1.9.9 1.9 1.9v11.3z"/></svg>