<svg xmlns="http://www.w3.org/2000/svg" viewBox="0 0 100 100"><path d="M34.2 71.7c-3.1 0-5.8-2.5-5.8-5.8 0-1.9-1.5-3.3-3.5-3.3-1.8 0-3.4 1.5-3.4 3.3 0 7.1 5.8 12.8 12.7 12.8C41.3 78.7 47 73 47 65.9c0-4.7-2.8-8.9-6.8-11.1l6-7.5c.8-1.1.9-2.4.4-3.7-.6-1.2-1.8-1.9-3.1-1.9H24.9c-1.8 0-3.4 1.5-3.4 3.4s1.6 3.5 3.4 3.5h11.4l-4.8 6c-.2.3-.5.6-.5 1.2v.2c-.2.3-.3.5-.3.9 0 .1.1.1.1.1v.2c.1.5.3.8.5 1.2 0 0 0 .1.1.1.2.3.3.7.7.9l.1.1h.1c.2.2.5.5.9.6 0 0 0 .1.1.1.3.1.8.1 1 .1 3.3 0 5.8 2.6 5.8 5.7 0 3.2-2.6 5.7-5.9 5.7zm31.5 7.1c7.1 0 12.8-5.7 12.8-12.8V54.5c0-7.1-5.7-12.7-12.8-12.7-7 0-12.8 5.6-12.8 12.7V66c0 7.1 5.8 12.8 12.8 12.8zm-5.8-24.3c0-3.3 2.7-5.8 5.8-5.8 3.2 0 5.9 2.6 5.9 5.8V66c0 3.3-2.7 5.8-5.9 5.8-3 0-5.8-2.5-5.8-5.8V54.5zM91.6 5H8.4C6.6 5 5 6.6 5 8.4v83.1C5 93.4 6.6 95 8.4 95h83.1c1.9 0 3.5-1.6 3.5-3.5V8.4C95 6.6 93.4 5 91.6 5zm-3.5 83.1H11.9V32.4h76.2v55.7z"/></svg>