<svg xmlns="http://www.w3.org/2000/svg" viewBox="0 0 100 100"><path d="M50 5C25.2 5 5 25.1 5 50c0 24.8 20.2 45 45 45 24.9 0 45-20.2 45-45C95 25.1 74.9 5 50 5zM35.5 68.8c-6.7 1.1-13.9-2.6-15.6-11.9-1.8-13.3 8-24.4 22.5-26 .5 0 .6.4.6.4l.7 4.1s0 .5-.4.6c-4.2 1.3-7.7 3.3-9 8.5 5.7.3 10.6 4.5 11.6 10.4.8 6.7-3.7 12.9-10.4 13.9zm34.5 0c-6.7 1.1-13.9-2.6-15.7-11.9-1.7-13.3 8-24.4 22.5-26 .5 0 .6.4.6.4l.7 4.1s0 .5-.4.6c-4.2 1.3-7.7 3.3-9.1 8.5 5.7.3 10.6 4.5 11.6 10.4 1.1 6.7-3.5 12.9-10.2 13.9z"/></svg>