<svg xmlns="http://www.w3.org/2000/svg" viewBox="0 0 100 100"><path d="M50 5C25.2 5 5 25.1 5 50s20.2 45 45 45c24.9 0 45-20.1 45-45S74.9 5 50 5zm.9 75.3c-3.1.4-6.5-1.7-8-3.9h14.4c-1.5 2.2-3.7 3.6-6.4 3.9zm6.8-7H42.4c-1.2 0-2.2-.9-2.2-2s1-2 2.2-2h15.3c1.2 0 2.2.9 2.2 2 0 1-1 2-2.2 2zm9.2-23.8c-1.1 1.6-2.3 3.2-3.4 4.7-1.8 2.4-3.1 4.9-3.3 7.8-.1.4-.1.9-.1 1.3 0 1.7-1.2 2.9-3.1 2.9H42.8c-1.6 0-2.9-1.2-2.9-2.6 0-3.2-1.1-6-2.9-8.6-1.5-2.1-3-4-4.3-6.2-4.1-6.6-4.1-15.9 1.7-22.3 3.5-3.9 8-6.1 13.5-6.7.8-.1 1.5-.2 2.3-.2 8.5 0 16.3 5.1 19 12.8 2 5.9 1.1 11.7-2.3 17.1z"/></svg>