<svg xmlns="http://www.w3.org/2000/svg" viewBox="0 0 100 100"><path d="M78.3 23.9C74.3 12.4 62.8 5 50.2 5c-1.2 0-2.3.1-3.5.2C38.7 6 32 9.4 26.8 15c-8.6 9.4-8.6 23.3-2.5 33.2 1.9 3.2 4.2 6.1 6.4 9.1 2.7 3.9 4.3 8.2 4.3 12.8 0 2 1.9 3.7 4.3 3.7 1.3 0 18 .1 20.7.1h.3c2.8 0 4.6-1.7 4.6-4.2 0-.6.1-1.2.1-1.8.4-4.3 2.3-8.2 4.9-11.7 1.7-2.3 3.5-4.5 5-7 5.2-8 6.5-16.5 3.4-25.3zm-9.1 21.6c-.9 1.6-2.1 3.1-3.4 4.8l-1.4 1.9c-3.7 5.1-5.7 9.8-6.2 14.8H41.8c-.6-4.8-2.4-9.4-5.5-13.6-.7-1.1-1.5-2.1-2.3-3.1-1.4-1.9-2.8-3.8-3.9-5.7-4-6.6-5.2-17.2 1.7-24.9 4.2-4.5 9.3-7.1 15.6-7.7.9-.1 1.7-.2 2.7-.2 9.8 0 18.7 5.9 21.7 14.2 2.4 6.8 1.6 13.2-2.6 19.5zm-7.8 33H38.7c-1.7 0-3.2 1.3-3.2 2.9 0 1.7 1.5 3 3.2 3h22.7c1.7 0 3.2-1.3 3.2-3 0-1.5-1.4-2.9-3.2-2.9zM51.2 94.9c4.1-.5 7.3-2.5 9.5-5.8H39.4c2.2 3.3 7.1 6.4 11.8 5.8z"/></svg>