<svg xmlns="http://www.w3.org/2000/svg" viewBox="0 0 100 100"><path d="M50 5C25.1 5 5 25.2 5 50c0 24.9 20.1 45 45 45s45-20.1 45-45C95 25.2 74.9 5 50 5zm-6.4 44.3l-3.3-3.2c-1.1-1.1-1.1-2.9 0-4s2.9-1.1 3.9 0l3.2 3.3.7-.6c.7-.7 1-1.5 1-2.4 0-.9-.4-1.7-1-2.3l-6.9-7c-.7-.6-1.5-1-2.4-1-.9 0-1.8.4-2.4 1l-5.2 5.2c-.7.6-1 1.5-1 2.4 0 1 .4 1.7 1 2.4l6.9 6.9c1.2 1.3 3.5 1.3 4.7 0l.8-.7zm26.2 13.8c0-.9-.4-1.7-1-2.3l-6.9-6.9c-.6-.7-1.4-1.1-2.4-1.1-.9 0-1.7.4-2.4 1.1l-.7.6s3.1 3.1 3.3 3.2c1.1 1.1 1.1 2.9 0 3.9-1.1 1.1-2.9 1.1-4 0-.2-.2-3.2-3.3-3.2-3.3l-.5.7c-.7.7-1 1.5-1 2.4 0 .9.4 1.8 1 2.3l6.9 7c1.3 1.3 3.5 1.3 4.7 0l5.2-5.2c.6-.6 1-1.5 1-2.4zm3-6.3c1.7 1.7 2.6 3.9 2.6 6.2 0 2.4-1 4.6-2.6 6.3l-5.2 5.2c-1.8 1.7-3.9 2.6-6.3 2.6s-4.6-.9-6.3-2.6l-6.9-6.9c-1.6-1.7-2.6-3.9-2.6-6.3s1-4.6 2.6-6.3l.7-.7-1.3-1.3-.6.7c-1.8 1.6-4 2.6-6.3 2.6-2.4 0-4.6-1-6.3-2.6l-6.9-6.9c-1.7-1.7-2.6-3.9-2.6-6.3s.9-4.6 2.6-6.3l5.2-5.2c1.7-1.7 3.9-2.6 6.3-2.6s4.6.9 6.3 2.6l6.9 6.9c1.7 1.7 2.6 3.9 2.6 6.3s-1 4.6-2.6 6.3l-.7.6 1.3 1.3.7-.6c1.6-1.7 3.8-2.6 6.2-2.6 2.4 0 4.6 1 6.3 2.6l6.9 7z"/></svg>