<svg xmlns="http://www.w3.org/2000/svg" viewBox="0 0 100 100"><path d="M50 51.4c-2.5 0-4.6 2.1-4.6 4.6 0 2 1.3 3.7 3.1 4.3v7.9c0 .9.7 1.5 1.5 1.5.9 0 1.5-.7 1.5-1.5v-7.9c1.8-.6 3.1-2.3 3.1-4.3 0-2.5-2.1-4.6-4.6-4.6zm0-22.7c-5.2 0-9.4 4.3-9.4 9.4V43h18.9v-4.9c-.1-5.1-4.3-9.4-9.5-9.4zM50 5C25.1 5 5 25.1 5 50c0 24.8 20.1 45 45 45s45-20.2 45-45C95 25.1 74.9 5 50 5zm21.2 64c0 4.2-3.4 7.6-7.6 7.6H36.3c-4.2 0-7.6-3.4-7.6-7.6V50.6c0-3.8 2.8-6.9 6.4-7.4v-5c0-8.1 6.6-14.8 14.8-14.8 8.2 0 14.9 6.7 14.9 14.8v5c3.6.6 6.4 3.7 6.4 7.4V69z"/></svg>