<svg xmlns="http://www.w3.org/2000/svg" viewBox="0 0 100 100"><path d="M76.5 37.1c-1.8 0-3.3 1.4-3.3 3.2v8.3c0 12.6-10.3 23.1-23.1 23.1S26.8 61.2 26.8 48.6v-8.3c0-1.8-1.5-3.2-3.3-3.2-1.8 0-3.2 1.4-3.2 3.2v8.3C20.3 63.8 32 76.3 46.8 78v10.5H33.9c-1.8 0-3.2 1.5-3.2 3.3 0 1.8 1.4 3.2 3.2 3.2H66c1.8 0 3.2-1.4 3.2-3.2 0-1.8-1.4-3.3-3.2-3.3H53.2V78.2v-.1C68 76.3 79.7 63.8 79.7 48.6v-8.3c0-1.7-1.5-3.2-3.2-3.2zM50 65.9c9.8 0 17.6-8 17.6-17.7l.1-25.5C67.7 13 59.9 5 50.1 5s-17.8 8-17.8 17.8v25.5C32.2 58 40.2 65.9 50 65.9z"/></svg>