<svg xmlns="http://www.w3.org/2000/svg" viewBox="0 0 100 100"><path d="M50 5C25.1 5 5 25.1 5 50c0 24.8 20.1 45 45 45s45-20.2 45-45C95 25.1 74.9 5 50 5zM38.2 32c0-6.5 5.3-11.8 11.8-11.8 6.5 0 11.8 5.3 11.8 11.8l-.1 16.8c0 6.5-5.3 11.7-11.8 11.7-6.4 0-11.7-5.2-11.7-11.7V32zm31.4 17c0 10.1-7.7 18.4-17.5 19.5v7h8.5c1.2 0 2.2 1 2.2 2.2 0 1.2-1 2.1-2.2 2.1H39.4c-1.2 0-2.2-1-2.2-2.1 0-1.2 1-2.2 2.2-2.2h8.5v-7C38 67.4 30.4 59.1 30.4 49v-5.4c0-1.2 1-2.2 2.1-2.2 1.2 0 2.2 1 2.2 2.2V49c0 8.5 6.9 15.4 15.4 15.4S65.5 57.5 65.5 49v-5.4c0-1.2 1-2.2 2.1-2.2 1.2 0 2.2 1 2.2 2.2V49z"/></svg>