<svg xmlns="http://www.w3.org/2000/svg" viewBox="0 0 100 100"><path d="M50 5C25.1 5 5 25.1 5 50c0 24.8 20.1 45 45 45s45-20.2 45-45C95 25.1 74.9 5 50 5zm0 54.7c5.4 0 9.7-4.4 9.7-9.7 0-5.4-4.4-9.8-9.7-9.8s-9.7 4.4-9.7 9.8 4.3 9.7 9.7 9.7zm28.2-15.3c.7.2 1.1.8 1.1 1.4v8.5c0 .6-.5 1.3-1.1 1.4l-6.9 1.1c-.4 1.3-.9 2.3-1.5 3.4 1.3 1.9 2.7 3.6 4 5.4.5.7.6 1.2.1 1.7-1 1.2-6.1 6.9-7.3 6.9-.4 0-.8-.1-1.1-.4l-5.3-4.1c-1.1.6-2.3 1.1-3.4 1.5-.3 2.2-.6 4.7-1.1 6.9-.2.7-.6 1.1-1.4 1.1h-8.5c-.8 0-1.3-.5-1.4-1.1l-1-6.9c-1.1-.4-2.3-.9-3.4-1.4l-5.5 4c-.6.5-1.3.4-1.8-.1-2.1-1.9-4.7-4.2-6.3-6.5-.4-.5-.4-1.1 0-1.7 1.3-1.9 2.8-3.6 4-5.3-.6-1.3-1.2-2.5-1.5-3.6L22 55.4c-.7-.1-1.1-.7-1.1-1.4v-8.4c0-.7.5-1.4 1.1-1.5l6.9-1.1c.4-1.3.9-2.3 1.5-3.5-1.3-1.8-2.7-3.5-4-5.3-.6-.7-.7-1.1-.1-1.8 1-1.3 6-6.9 7.3-6.9.3 0 .7.2 1.1.5l5.3 4c1.1-.6 2.3-1.1 3.4-1.5.3-2.2.6-4.7 1.1-6.9.2-.7.7-1.1 1.4-1.1h8.5c.8 0 1.3.5 1.4 1.2l1.1 6.9c1.1.4 2.3.9 3.4 1.4l5.5-4c.6-.5 1.3-.5 1.8.1 2.1 1.8 4.8 4.2 6.3 6.4.4.6.4 1.2 0 1.7-1.3 1.9-2.7 3.6-4 5.3.6 1.3 1.2 2.6 1.5 3.7l6.8 1.2z"/></svg>