<svg xmlns="http://www.w3.org/2000/svg" viewBox="0 0 100 100"><path d="M50 5C25.1 5 5 25.1 5 50s20.1 45 45 45 45-20.1 45-45S74.9 5 50 5zm-6.9 45c0 .7-.1 1.3-.3 1.9L55 59.3c1.3-1.1 3-1.9 4.9-1.9 4.2 0 7.5 3.4 7.5 7.5s-3.3 7.5-7.5 7.5c-4.1 0-7.5-3.4-7.5-7.5 0-.7.1-1.3.3-1.9l-12.2-7.5c-1.3 1.1-3 1.8-4.9 1.8-4.1 0-7.5-3.3-7.5-7.5 0-4.1 3.4-7.5 7.5-7.5 1.9 0 3.6.7 4.9 1.8l12.2-7.5c-.2-.6-.3-1.2-.3-1.9 0-4.1 3.4-7.5 7.5-7.5 4.2 0 7.5 3.4 7.5 7.5 0 4.2-3.3 7.5-7.5 7.5-1.9 0-3.6-.7-4.9-1.9l-12.2 7.5c.2.9.3 1.5.3 2.2z"/></svg>