<svg xmlns="http://www.w3.org/2000/svg" viewBox="0 0 100 100"><path d="M85.6 7.6H14.4c-5.3 0-9.5 4.2-9.5 9.5v49c0 5.1 4.2 9.3 9.5 9.3h38l15.8 15.5c1.3 1.3 2.6 1.6 3.4 1.6 2.1 0 4.3-1.7 4.3-4.9l.1-12.2h9.6c5.3 0 9.5-4.2 9.5-9.3V17c0-5.2-4.3-9.4-9.5-9.4zm2.3 58.5c0 1.2-1 2.3-2.3 2.3H68.9l-.1 13.3-13.5-13.3H14.4c-1.3 0-2.4-1.1-2.4-2.3V17c0-1.3 1.1-2.4 2.4-2.4h71.2c1.3 0 2.3 1.1 2.3 2.4v49.1zM74.7 28.3H25.3c-1.9 0-3.5 1.6-3.5 3.4 0 1.9 1.6 3.6 3.5 3.6h49.4c1.9 0 3.5-1.6 3.5-3.6 0-1.8-1.6-3.4-3.5-3.4zm0 19.8H25.3c-1.9 0-3.5 1.6-3.5 3.6 0 1.9 1.6 3.5 3.5 3.5h49.4c1.9 0 3.5-1.6 3.5-3.5 0-2-1.6-3.6-3.5-3.6z"/></svg>