<svg xmlns="http://www.w3.org/2000/svg" viewBox="0 0 100 100"><path d="M50 5C25.1 5 5 25.1 5 50c0 24.8 20.1 45 45 45s45-20.2 45-45C95 25.1 74.9 5 50 5zm21.7 40.5l-13.5-2c-1-.2-1.8-.8-2.3-1.6l-6.1-12.3-6 12.3c-.5.8-1.3 1.5-2.3 1.6l-13.4 2 9.7 9.5c.7.6 1 1.6.9 2.6L36.5 71l12.2-6.3c.8-.4 1.8-.4 2.6 0L63.4 71l-2.2-13.5c-.2-1 .2-2 .8-2.6l9.7-9.4zm7.6-1.1c0 1.3-.6 2.4-1.7 3.6L67.2 58.1l2.5 15.5c.5 3.6-3.5 5.6-7 3.7l-12.8-6.7L37 77.3c-3.3 2-7.5-.7-6.8-4.8 0 0 0-.1 2.6-14.5-9.4-9.2-10.5-10.2-10.5-10.2-.4-.5-1.6-1.7-1.6-3.5 0-2.3 1.6-4.1 4.2-4.5l14.5-2.1 6.4-13.1c.9-1.8 2.5-2.9 4.2-2.9 1.7 0 3.3 1.1 4.2 3l6.5 12.9L75 39.9c2.6.4 4.3 2.2 4.3 4.5z"/></svg>