<svg xmlns="http://www.w3.org/2000/svg" viewBox="0 0 100 100"><path d="M95.1 41.4c0-3.5-2.6-6.2-6.7-6.8l-22.1-3.1-9.8-20C55 8.6 52.6 6.9 50 6.9c-2.7 0-5.1 1.7-6.5 4.5l-9.8 20.1-22.3 3.1c-4 .7-6.5 3.3-6.5 6.8 0 2.7 1.8 4.8 2.4 5.4.1 0 1.6 1.6 16.2 15.8-3.9 22.1-3.9 22.3-3.9 22.3C18.4 91 25 95.1 30.1 92L50 81.7 69.6 92c5.4 2.9 10.8.1 10.8-5.7l-3.9-23.8 16-15.6c1.8-1.9 2.6-3.6 2.6-5.5zM68.5 57.8c-1.1.9-1.6 2.5-1.3 3.9l3.4 20.8L52 72.6c-1.1-.7-2.7-.7-4 0l-18.7 9.8 3.5-20.8c.3-1.4-.2-2.9-1.4-3.9L16.5 43.1 37.3 40c1.4-.1 2.8-1.2 3.3-2.4l9.4-19 9.4 18.9c.6 1.2 2 2.3 3.3 2.4L83.5 43l-15 14.8z"/></svg>