<svg xmlns="http://www.w3.org/2000/svg" viewBox="0 0 100 100"><path d="M50 53.1c-2.5 0-4.6 2.1-4.6 4.6 0 2 1.3 3.6 3.1 4.3v7.8c0 .9.7 1.6 1.5 1.6.9 0 1.5-.7 1.5-1.6V62c1.8-.7 3.1-2.3 3.1-4.3 0-2.6-2.1-4.6-4.6-4.6zM50 5C25.1 5 5 25.1 5 50c0 24.8 20.1 45 45 45s45-20.2 45-45C95 25.1 74.9 5 50 5zm21.2 65.7c0 4.2-3.4 7.6-7.6 7.6H36.3c-4.2 0-7.6-3.4-7.6-7.6V52.3c0-3.4 2.3-6.3 5.4-7.2l-1.3-4c-1.2-3.8-.9-7.8 1-11.4 1.9-3.5 4.9-6.1 8.7-7.3 3.8-1.2 7.8-.9 11.4 1 3.5 1.8 6.1 4.9 7.3 8.7.5 1.4-.4 3-1.8 3.4-1.5.5-2.9-.3-3.4-1.8-.8-2.4-2.4-4.4-4.7-5.5-2.3-1.2-4.8-1.4-7.2-.6-2.4.8-4.4 2.4-5.5 4.6-1.2 2.3-1.4 4.8-.7 7.2l1.7 5.3h24c4.2 0 7.6 3.4 7.6 7.6v18.4z"/></svg>