<svg xmlns="http://www.w3.org/2000/svg" viewBox="0 0 100 100"><path d="M58.8 62.5c-1.2 0-2.2 1-2.2 2.3 0 1.3 1 2.3 2.2 2.3 1.3 0 2.3-1 2.3-2.3-.1-1.3-1.1-2.3-2.3-2.3zm-6.9-11.8c-1.3 0-2.3 1-2.3 2.3 0 1.2 1 2.2 2.3 2.2 1.3 0 2.3-1 2.3-2.2-.1-1.3-1.1-2.3-2.3-2.3zm0 11.8c-1.3 0-2.3 1-2.3 2.3 0 1.3 1 2.3 2.3 2.3 1.3 0 2.3-1 2.3-2.3-.1-1.3-1.1-2.3-2.3-2.3zm0-5.9c-1.3 0-2.3 1.1-2.3 2.3 0 1.3 1 2.3 2.3 2.3 1.3 0 2.3-1 2.3-2.3-.1-1.3-1.1-2.3-2.3-2.3zm13.9 0c-1.3 0-2.3 1.1-2.3 2.3 0 1.3 1 2.3 2.3 2.3 1.3 0 2.3-1 2.3-2.3-.1-1.3-1.1-2.3-2.3-2.3zm0-5.9c-1.3 0-2.3 1-2.3 2.3 0 1.2 1 2.2 2.3 2.2 1.3 0 2.3-1 2.3-2.2-.1-1.3-1.1-2.3-2.3-2.3zM50 5C25.1 5 5 25.1 5 50s20.1 45 45 45 45-20.1 45-45S74.9 5 50 5zm19.3 25.5h-8.4v-8.4l8.4 8.4zM35.1 68.1c0 2.5-2.9 4.5-6.4 4.5-3.4 0-6.3-2.1-6.3-4.5V39.5c0-2.5 2.9-4.6 6.3-4.6 3.5 0 6.4 2.1 6.4 4.6v28.6zm-1.4-46.4c0-.6.5-1.1 1.1-1.1h21.3v12.3c0 1.3 1.1 2.4 2.4 2.4h12.3v5.3H39.6c0-5.3-2.4-7.6-5.8-9.1v-9.8zm42.2 48.6c0 1.3-1 2.4-2.3 2.4H38c1-1.4 1.5-2.9 1.5-4.5V45h34c1.3 0 2.3 1.1 2.3 2.4v22.9zM58.8 50.7c-1.2 0-2.2 1-2.2 2.3 0 1.2 1 2.2 2.2 2.2 1.3 0 2.3-1 2.3-2.2-.1-1.3-1.1-2.3-2.3-2.3zm0 5.9c-1.2 0-2.2 1.1-2.2 2.3 0 1.3 1 2.3 2.2 2.3 1.3 0 2.3-1 2.3-2.3-.1-1.3-1.1-2.3-2.3-2.3zm7 5.9c-1.3 0-2.3 1-2.3 2.3 0 1.3 1 2.3 2.3 2.3 1.3 0 2.3-1 2.3-2.3-.1-1.3-1.1-2.3-2.3-2.3z"/></svg>