<svg xmlns="http://www.w3.org/2000/svg" viewBox="0 0 100 100"><path d="M86 39.5V28.9c0-.3 0-.9-.3-1.5-.3-.5-.6-1.1-.9-1.3L66.3 7.5c-.2-.2-.6-.5-1.3-.8-.6-.3-1.3-.3-1.5-.3H25.2c-2.1 0-4 1.8-4 4v15.2C12.3 25.7 5 32 5 39.6v39.9c0 7.8 7.5 14.1 16.7 14.1h69.4c2.2 0 3.9-1.7 3.9-3.9V43.5c0-2.1-1.7-4-3.9-4H86zm-55.5 40c0 3.4-4.1 6.3-8.8 6.3-4.8 0-8.9-3-8.9-6.3V39.6c0-3.4 4-6.3 8.9-6.3 4.8 0 8.8 2.9 8.8 6.3v39.9zm-1.4-65.3h30.5v14.7c0 2.1 1.7 3.9 3.9 3.9h14.6v6.6H38.2c0-5.4-3.7-10.1-9.1-12.4V14.2zm22.2 65.7c-1.6 0-3.1-1.4-3.1-3.2 0-1.7 1.5-3.1 3.1-3.1 1.7 0 3.2 1.4 3.2 3.1 0 1.8-1.4 3.2-3.2 3.2zm0-10.3c-1.6 0-3.1-1.4-3.1-3.2 0-1.7 1.5-3.1 3.1-3.1 1.7 0 3.2 1.4 3.2 3.1 0 1.8-1.4 3.2-3.2 3.2zm0-10.2c-1.6 0-3.1-1.5-3.1-3.2s1.5-3.2 3.1-3.2c1.7 0 3.2 1.5 3.2 3.2s-1.4 3.2-3.2 3.2zm12.1 20.5c-1.7 0-3.1-1.4-3.1-3.2 0-1.7 1.3-3.1 3.1-3.1 1.7 0 3.1 1.4 3.1 3.1 0 1.8-1.3 3.2-3.1 3.2zm0-10.3c-1.7 0-3.1-1.4-3.1-3.2 0-1.7 1.3-3.1 3.1-3.1 1.7 0 3.1 1.4 3.1 3.1 0 1.8-1.3 3.2-3.1 3.2zm0-10.2c-1.7 0-3.1-1.5-3.1-3.2s1.3-3.2 3.1-3.2c1.7 0 3.1 1.5 3.1 3.2s-1.3 3.2-3.1 3.2zm12.1 20.5c-1.7 0-3.1-1.4-3.1-3.2 0-1.7 1.3-3.1 3.1-3.1 1.7 0 3.2 1.4 3.2 3.1 0 1.8-1.4 3.2-3.2 3.2zm0-10.3c-1.7 0-3.1-1.4-3.1-3.2 0-1.7 1.3-3.1 3.1-3.1 1.7 0 3.2 1.4 3.2 3.1 0 1.8-1.4 3.2-3.2 3.2zm0-10.2c-1.7 0-3.1-1.5-3.1-3.2s1.3-3.2 3.1-3.2c1.7 0 3.2 1.5 3.2 3.2s-1.4 3.2-3.2 3.2z"/></svg>