<svg xmlns="http://www.w3.org/2000/svg" viewBox="0 0 100 100"><path d="M50.5 5c-24.9 0-45 20.1-45 45 0 24.8 20.1 45 45 45 24.8 0 45-20.2 45-45 0-24.9-20.2-45-45-45zM27.7 67.7l14.7-8.4 1.3 2.2L29 70l-1.3-2.3zm30.8-23.9c-.9-1.5-1.3-3.1-1.3-4.7-3.4 1.3-7 3-10.6 5.1-3.8 2.2-7.1 4.5-9.9 6.9 1.4.8 2.6 1.9 3.4 3.4.4.7.7 1.4.9 2.1l-15 8.6c-.5-.5-1-1.1-1.4-1.8-1-1.6-1.5-3.4-1.4-5.2.4-6 7.4-13.5 19.3-20.4 0 0 .2-.1.3-.2 12-6.9 21.9-9.2 27.4-6.5 1.6.8 2.8 2.2 3.8 3.8.4.7.7 1.4.9 2.1l-15 8.6c-.5-.6-1-1.1-1.4-1.8zm3.1 4.3l14.7-8.5 1.3 2.3-14.7 8.5-1.3-2.3z"/></svg>