<svg xmlns="http://www.w3.org/2000/svg" viewBox="0 0 100 100"><path d="M55.2 30.6c.7 0 1.2-.5 1.2-1.2s-.6-1.3-1.2-1.3h-9.8c-.7 0-1.2.6-1.2 1.3 0 .7.6 1.2 1.2 1.2h9.8zm-4.9 36.9c-1.4 0-2.5 1.1-2.5 2.5s1.1 2.5 2.5 2.5 2.5-1.1 2.5-2.5-1.1-2.5-2.5-2.5zM50 5C25.1 5 5 25.1 5 50c0 24.8 20.1 45 45 45s45-20.2 45-45C95 25.1 74.9 5 50 5zm16 65.8c0 3.4-2.8 6.1-6.1 6.1H40.2c-3.4 0-6.1-2.8-6.1-6.1V29.1c0-3.4 2.7-6.1 6.1-6.1h19.6c3.4 0 6.1 2.8 6.1 6.1v41.7zM39.3 33.2c-.7 0-1.3.6-1.3 1.3V64c0 .7.6 1.3 1.3 1.3h22.1c.7 0 1.3-.6 1.3-1.3V34.5c0-.7-.6-1.3-1.3-1.3H39.3z"/></svg>