<svg xmlns="http://www.w3.org/2000/svg" viewBox="0 0 100 100"><path d="M50 5C25.1 5 5 25.1 5 50c0 24.8 20.1 45 45 45s45-20.2 45-45C95 25.1 74.9 5 50 5zm0 72c-14.9 0-27-12.1-27-27s12.1-27 27-27 27 12.1 27 27-12.1 27-27 27zm-9.7-46.3C34 33.9 29.5 40 28.6 47.3h8c.2-6.6 1.6-12.3 3.7-16.6zm9.7 40c3.1 0 7.3-6.8 8-18H42c.7 11.2 4.9 18 8 18zm-21.4-18c1 7.5 5.7 13.8 12.4 16.9-2.4-4.2-4-10-4.4-16.9h-8zm31.1-22c2.1 4.3 3.5 10 3.8 16.6h7.9C70.5 40 66 33.9 59.7 30.7zM50 28.4c-3.2 0-7.5 7.1-8 18.9h16c-.5-11.8-4.8-18.9-8-18.9zm9 41.1c6.6-3.1 11.4-9.3 12.4-16.9h-8c-.4 6.9-1.9 12.8-4.4 16.9z"/></svg>