<svg xmlns="http://www.w3.org/2000/svg" viewBox="0 0 100 100"><path d="M50 5C25.2 5 5 25.2 5 50s20.2 45 45 45 45-20.2 45-45S74.8 5 50 5zm22.3 40.5c-.4-11-2.6-20.5-6.2-27.6 10.5 5.3 18 15.5 19.5 27.6H72.3zM33.8 17.9C30.3 25 28 34.5 27.6 45.5H14.3c1.6-12.1 9.1-22.3 19.5-27.6zm-6.1 36.6c.6 11.3 3.2 21.1 7.3 28.1-11.1-5-19-15.6-20.7-28.1h13.4zm22.3 30c-5.1 0-12.2-11.3-13.3-30h26.6c-1.2 18.8-8.2 30-13.3 30zm-13.4-39C37.4 25.9 44.7 14 50 14c5.3 0 12.5 11.9 13.4 31.5H36.6zM65 82.6c4-7 6.7-16.8 7.2-28.1h13.4C84 67 76 77.6 65 82.6z"/></svg>