<svg xmlns="http://www.w3.org/2000/svg" viewBox="0 0 100 100"><path d="M50 5C25.1 5 5 25.1 5 50s20.1 45 45 45 45-20.1 45-45S74.9 5 50 5zm12 25.9h-9.2v-9.1l9.2 9.1zM26.2 66.6l-.1-45.1c0-.5.4-.9.9-.9h21.8v12.2c0 1.1.9 2 2 2H63v31.8c0 .5-.4.9-.9.9H27c-.5 0-.8-.4-.8-.9zm46.4 9.5c0 .5-.4.9-.9.9H36.5c-.5 0-.9-.4-.9-.9v-5.3h28.8c1.1 0 1.9-.9 1.9-2V51.6h5.3c.5 0 .9.4.9.9V76.1zM31.3 60.3c0 1.2 1 2.2 2.2 2.2 1.2 0 2.2-1 2.2-2.2 0-1.2-1-2.2-2.2-2.2-1.3.1-2.2 1-2.2 2.2zm22.4 0c0 1.2 1 2.2 2.2 2.2 1.2 0 2.2-1 2.2-2.2 0-1.2-1-2.2-2.2-2.2-1.3.1-2.2 1-2.2 2.2zm-14.9 0c0 1.2 1 2.2 2.2 2.2 1.2 0 2.2-1 2.2-2.2 0-1.2-1-2.2-2.2-2.2-1.3.1-2.2 1-2.2 2.2zm7.4 0c0 1.2 1 2.2 2.2 2.2 1.2 0 2.2-1 2.2-2.2 0-1.2-1-2.2-2.2-2.2-1.3.1-2.2 1-2.2 2.2z"/></svg>