<svg xmlns="http://www.w3.org/2000/svg" viewBox="0 0 100 100"><path d="M74.5 52.5V25.2c0-1-.4-1.8-1-2.5L56.7 6.1C56 5.4 55.4 5 54.1 5H16.8c-2.1 0-3.6 1.5-3.6 3.4V79c0 2.1 1.5 3.6 3.6 3.6h8.8v9c0 1.9 1.8 3.5 3.7 3.5h54.1c1.9 0 3.4-1.5 3.4-3.5l.1-35.3c0-1.9-1.4-3.7-3.5-3.7h-8.9zM20.3 12h30.5v13.1c0 2 1.5 3.6 3.4 3.6h13.5v46.8H20.3V12zm12.3 75.9v-5.4h38.3c1.9 0 3.6-1.5 3.6-3.6V59.7h5.2v28.2H32.6zm12.6-20.1c0 1.9 1.6 3.6 3.5 3.6 2 0 3.6-1.6 3.6-3.6 0-1.9-1.6-3.6-3.6-3.6s-3.5 1.6-3.5 3.6zm-9.8 0c0 1.9 1.6 3.6 3.6 3.6s3.6-1.6 3.6-3.6c0-1.9-1.6-3.6-3.6-3.6s-3.6 1.6-3.6 3.6zm-9.8 0c0 1.9 1.6 3.6 3.6 3.6 1.9 0 3.6-1.6 3.6-3.6 0-1.9-1.6-3.6-3.6-3.6-1.9 0-3.6 1.6-3.6 3.6zm29.3 0c0 1.9 1.6 3.6 3.6 3.6 1.9 0 3.5-1.6 3.5-3.6 0-1.9-1.6-3.6-3.5-3.6-2 0-3.6 1.6-3.6 3.6z"/></svg>