<svg xmlns="http://www.w3.org/2000/svg" viewBox="0 0 100 100"><path d="M50 5C25.1 5 5 25.1 5 50s20.1 45 45 45 45-20.1 45-45S74.9 5 50 5zm22.7 67.3c-2.9 2.9-6.7 4.3-10.4 4.3-3.8 0-7.6-1.5-10.4-4.3L26.1 46.6c-2.1-2-3.2-4.7-3.2-7.6 0-2.9 1.1-5.6 3.2-7.6 2-2.1 4.7-3.2 7.6-3.2 2.9 0 5.6 1.1 7.6 3.2L67 57.1c2.6 2.6 2.6 6.9 0 9.5-2.6 2.6-6.9 2.6-9.5 0L41.3 50.5c-1.1-1.1-1.1-2.8 0-3.8 1.1-1.1 2.8-1.1 3.8 0l16.1 16.2c.6.5 1.4.5 1.9 0 .6-.6.6-1.4 0-1.9L37.5 35.2c-2.1-2-5.6-2-7.6 0-1 1.1-1.6 2.4-1.6 3.8 0 1.5.6 2.8 1.6 3.8l25.7 25.6c3.7 3.7 9.6 3.7 13.3 0 1.8-1.8 2.7-4.1 2.7-6.6s-1-4.9-2.7-6.6L43.2 29.6c-1.1-1.1-1.1-2.8 0-3.8 1.1-1.1 2.8-1.1 3.8 0l25.6 25.7c2.8 2.8 4.3 6.5 4.3 10.4.1 3.9-1.4 7.6-4.2 10.4z"/></svg>