<svg xmlns="http://www.w3.org/2000/svg" viewBox="0 0 100 100"><path d="M45 8.3c-1.8-1.7-4.6-1.7-6.4 0-1.7 1.8-1.7 4.5 0 6.3l42.9 42.9c2.8 3 4.5 7 4.5 11 0 4.2-1.6 8.1-4.5 11.2-6.2 6.1-16.2 6.1-22.2 0L16.5 36.8c-1.6-1.7-2.6-4-2.6-6.3s1-4.6 2.6-6.3c3.4-3.4 9.3-3.4 12.9 0L72.1 67c.8.7.8 2.2 0 3.1-1.1 1-2.4 1-3.3 0l-27-26.9c-1.6-1.9-4.6-1.9-6.3 0-1.7 1.7-1.7 4.6 0 6.2l26.9 27.1c4.3 4.3 11.4 4.3 15.7 0 4.5-4.6 4.5-11.4 0-15.9L35.6 17.7c-3.5-3.3-7.8-5.2-12.7-5.2-4.8 0-9.3 1.9-12.7 5.2-3.3 3.5-5.2 8-5.2 12.7 0 4.8 1.9 9.3 5.2 12.7L53 85.8c4.8 4.8 11.2 7.2 17.4 7.2 6.3 0 12.7-2.4 17.4-7.2C92.3 81.2 95 75 95 68.4c0-6.6-2.7-12.8-7.2-17.3L45 8.3z"/></svg>