<svg xmlns="http://www.w3.org/2000/svg" viewBox="0 0 100 100"><path d="M47.2 78.8c1.5 1.6 4.2 1.6 5.7 0l12.5-12.5c1.5-1.5 1.5-4.1 0-5.8-1.7-1.6-4.2-1.6-5.7 0l-5.6 5.6V37.6c0-2.2-1.9-4.1-4-4.1-2.2 0-4.1 1.9-4.1 4.1v28.6s-5.4-5.5-5.6-5.6c-1.5-1.6-4-1.6-5.6 0-1.6 1.7-1.6 4.2 0 5.8 0 .2 12.4 12.4 12.4 12.4zm37.2-53.2c0-.1 0-.1-19.5-19.5C64.4 5.6 63.3 5 62 5H18.5c-2.2 0-4 1.8-4 4v81.9c0 2.3 1.8 4.1 4 4.1h63c2.2 0 4-1.8 4-4.1V28.5c0-1.3-.6-2.3-1.1-2.9zM22.7 13.1H58v15.3c0 2.2 1.9 4 4 4h15.4v54.3H22.7V13.1z"/></svg>