<svg xmlns="http://www.w3.org/2000/svg" viewBox="0 0 100 100"><path d="M35.5 44.7c-.7 0-1.3.6-1.3 1.3v20.2c0 .7.6 1.3 1.3 1.3.7 0 1.3-.6 1.3-1.3v-8.8h3.4c1.6 0 3-1.4 3-3v-6.7c0-1.7-1.4-3-3-3h-4.7zm5.1 9.6c0 .3-.2.5-.5.5h-3.4v-7.6h3.4c.3 0 .5.2.5.5v6.6zM50 5C25.1 5 5 25.1 5 50s20.1 45 45 45 45-20.1 45-45S74.9 5 50 5zm20 29.8H59.4V24.2L70 34.8zm1.3 41.4c0 .5-.4.9-.9.9H29.6c-.5 0-.9-.4-.9-.9V23.9c0-.5.4-.9.9-.9H55v15.5c0 .5.4.9.9.9h15.5v36.8zM46.8 44.7c-.7 0-1.3.6-1.3 1.3v20.2c0 .7.6 1.3 1.3 1.3h4.4c2.4 0 4.4-2.3 4.4-5.1V49.7c0-2.8-2-5-4.4-5h-4.4zm6.3 17.6c0 1.4-.9 2.5-1.9 2.5H48V47.2h3.2c1 0 1.9 1.2 1.9 2.5v12.6zm6.3 5.1c.7 0 1.3-.6 1.3-1.3v-8.8h3.8c.7 0 1.3-.6 1.3-1.3 0-.7-.6-1.3-1.3-1.3h-3.8v-7.6h3.8c.7 0 1.3-.6 1.3-1.3 0-.7-.6-1.3-1.3-1.3h-5c-.7 0-1.3.6-1.3 1.3V66c0 .8.5 1.4 1.2 1.4z"/></svg>