<svg xmlns="http://www.w3.org/2000/svg" viewBox="0 0 100 100"><path d="M31 39.1c-.9 0-1.7.7-1.7 1.7v26.4c0 1 .8 1.7 1.7 1.7.8 0 1.6-.8 1.6-1.7V55.7h4.5c2.1 0 3.8-1.7 3.8-3.8V43c0-2-1.7-3.9-3.8-3.9H31zm6.6 12.8c0 .3-.3.6-.5.6h-4.5v-9.9h4.5c.3 0 .5.2.5.5v8.8zm23.2 15.4c0 1 .7 1.7 1.7 1.7.9 0 1.7-.8 1.7-1.7V55.7H69c1 0 1.7-.7 1.7-1.7 0-.8-.8-1.6-1.7-1.6h-4.9v-9.9H69c1 0 1.7-.8 1.7-1.7 0-1-.8-1.7-1.7-1.7h-6.5c-1 0-1.7.7-1.7 1.7v26.5zm-15-28.2c-.9 0-1.6.7-1.6 1.7v26.4c0 1 .7 1.7 1.6 1.7h5.9c3.2 0 5.8-3 5.8-6.6V45.8c0-3.7-2.6-6.7-5.8-6.7h-5.9zm8.4 23.2c0 1.8-1.2 3.3-2.5 3.3h-4.2V42.5h4.2c1.3 0 2.5 1.5 2.5 3.3v16.5zm30.2-36.7L65 6.2c-.6-.5-1.6-1.2-3-1.2H18.6c-2.2 0-4 1.9-4 4.1V91c0 2.2 1.8 4 4 4h62.9c2.3 0 4-1.8 4-4V28.5c0-1.3-.5-2.3-1.1-2.9zM22.7 86.9V13.2H58v15.3c0 2.2 1.9 4 4 4h15.4v54.3H22.7z"/></svg>