<svg xmlns="http://www.w3.org/2000/svg" viewBox="0 0 100 100"><path d="M72.8 45.5c-1.3 0-2.3 1-2.3 2.3 0 1.3 1 2.3 2.3 2.3 1.3 0 2.3-1 2.3-2.3-.1-1.3-1.1-2.3-2.3-2.3zM50 5C25.1 5 5 25.1 5 50s20.1 45 45 45 45-20.1 45-45S74.9 5 50 5zm15.3 26.2h-9.6v-9.6l9.6 9.6zM51.2 19.4v14c0 1.3 1 2.3 2.3 2.3h14.1v3H31.9V19.4h19.3zm16.9 57.4H32.4V56h35.7v20.8zm9.1-9.7c0 1.3-1 2.3-2.2 2.3h-2.5V56c0-2.5-2-4.5-4.5-4.5H32.4c-2.5 0-4.5 2-4.5 4.5v13.3h-2.4c-1.3 0-2.3-1-2.3-2.3V44.8c0-1.3 1-2.2 2.3-2.2H75c1.3 0 2.2 1 2.2 2.2v22.3zm-38.7-5.8V65H62v-3.7H38.5zm0 5.8v3.6H62v-3.6H38.5z"/></svg>