<svg xmlns="http://www.w3.org/2000/svg" viewBox="0 0 100 100"><path d="M37.8 54.5c-.8 0-1.5.9-1.5 2.1v14.1c0 1.1.7 2 1.5 2h24.3c.9 0 1.5-.9 1.5-2V56.5c0-1.2-.7-2.1-1.5-2.1H37.8zm2.9 13.7v-9.1h5v9.1h-5zM36.3 29c-1.1 0-2 .9-2 2.1v13.1c0 1.2.9 2.1 2 2.1h27.3c1.2 0 2.1-.9 2.1-2.1V31.1c0-1.2-.9-2.1-2.1-2.1H36.3zM50 5C25.1 5 5 25.1 5 50s20.1 45 45 45 45-20.1 45-45S74.9 5 50 5zm24.7 67.7c0 1.1-.9 2.1-2 2.1H32.3c-.6 0-1.1-.3-1.5-.6l-5-5.1c-.4-.4-.6-.9-.6-1.4V27.3c0-1.2.9-2.1 2.1-2.1h45.4c1.1 0 2 .9 2 2.1v45.4z"/></svg>