<svg xmlns="http://www.w3.org/2000/svg" viewBox="0 0 100 100"><path d="M47.2 48.8v-7.5c0-1.9-1.5-3.5-3.5-3.5s-3.5 1.6-3.5 3.5v7.5h-7c-2.1 0-3.7 1.6-3.7 3.4 0 2 1.7 3.6 3.7 3.6h7V63c0 1.9 1.5 3.5 3.5 3.5s3.5-1.6 3.5-3.5v-7.2h7.4c1.8 0 3.4-1.6 3.4-3.6 0-1.8-1.6-3.4-3.4-3.4h-7.4zm27.2 3.9V25.3c0-1-.5-2-1.1-2.6L56.5 6.1c-.7-.7-1.3-1.1-2.3-1.1H16.5c-1.9 0-3.4 1.6-3.4 3.4v70.8c0 1.9 1.5 3.5 3.4 3.5h8.9v8.9c0 1.8 1.9 3.4 3.5 3.4h54.3c1.9 0 3.6-1.5 3.6-3.4V56.2c0-2.1-1.5-3.5-3.6-3.5h-8.8zM20.1 12.1h30.6v13.2c0 1.9 1.6 3.6 3.6 3.6h13.1v46.7H20.1V12.1zM32.7 88v-5.2h38.1c1.9 0 3.6-1.6 3.6-3.5V59.7h5.4V88H32.7z"/></svg>