<svg xmlns="http://www.w3.org/2000/svg" viewBox="0 0 100 100"><path d="M50 5C25.1 5 5 25.1 5 50s20.1 45 45 45 45-20.1 45-45S74.9 5 50 5zm12 26h-9.2v-9.2L62 31zm-35.9-9.4c0-.5.4-.9.9-.9h21.8v12.2c0 1.1.9 2 2 2H63v31.8c0 .5-.4.9-.9.9H27c-.5 0-.9-.4-.9-.9V21.6zm46.4 54.5c0 .5-.4.9-.9.9H36.5c-.5 0-.9-.4-.9-.9v-5.3h28.8c1.1 0 1.9-.9 1.9-1.9V51.6h5.3c.5 0 .9.4.9.9v23.6zM46.8 47.8v-6.9c0-1.2-1-2.2-2.2-2.2-1.2 0-2.2 1-2.2 2.2v6.9h-6.9c-1.2 0-2.2 1-2.2 2.2 0 1.2 1 2.2 2.2 2.2h6.9v6.9c0 1.2 1 2.2 2.2 2.2 1.2 0 2.2-1 2.2-2.2v-6.9h6.9c1.2 0 2.2-1.1 2.2-2.2 0-1.2-1-2.2-2.2-2.2h-6.9z"/></svg>