<svg xmlns="http://www.w3.org/2000/svg" viewBox="0 0 100 100"><path d="M52.8 34.8c-1.5-1.6-4.1-1.6-5.6 0L34.7 47.3c-1.6 1.6-1.6 4.1 0 5.7 1.5 1.6 4.1 1.6 5.7 0l5.6-5.6V76c0 2.2 1.9 4.1 4 4.1 2.2 0 4-1.9 4-4.1V47.4s5.5 5.4 5.6 5.6c1.6 1.6 4.1 1.6 5.8 0 1.5-1.6 1.5-4.1 0-5.7-.1-.2-12.6-12.5-12.6-12.5zm31.5-9.2L64.9 6.2C64.4 5.6 63.3 5 62 5H18.6c-2.3 0-4.1 1.8-4.1 4.1v81.8c0 2.3 1.8 4.1 4.1 4.1h62.8c2.3 0 4-1.8 4-4.1V28.5c.1-1.3-.4-2.3-1.1-2.9zM22.7 13.2h35.2l.1 15.3c0 2.2 1.8 4 4 4h15.3v54.3H22.7V13.2z"/></svg>