<svg xmlns="http://www.w3.org/2000/svg" viewBox="0 0 100 100"><path d="M50 5C25.1 5 5 25.1 5 50c0 24.8 20.1 45 45 45s45-20.2 45-45C95 25.1 74.9 5 50 5zm-1.2 77.2c-3.4 0-6.1-2.7-6.1-6.1 0-3.4 2.7-6.1 6.1-6.1 3.4 0 6.1 2.8 6.1 6.1 0 3.4-2.7 6.1-6.1 6.1zm9.7-31.3c-2.7 2.8-4.6 4.9-4.6 9.5 0 2.8-2.3 5.1-5.1 5.1s-5.1-2.3-5.1-5.1c0-8.7 4.2-13.2 7.3-16.5 2.7-2.9 4-4.4 4-7.7 0-3.4-2.8-6.2-6.2-6.2-3.4 0-6.2 2.8-6.2 6.2 0 2.8-2.3 5.1-5.1 5.1s-5.1-2.3-5.1-5.1c0-9 7.3-16.3 16.3-16.3S65 27.2 65 36.2c.2 7.5-3.5 11.5-6.5 14.7z"/></svg>