<svg xmlns="http://www.w3.org/2000/svg" viewBox="0 0 100 100"><path d="M50 5C25.1 5 5 25.2 5 50c0 24.9 20.1 45 45 45s45-20.1 45-45C95 25.2 74.9 5 50 5zm-1.9 17.4h.4c2.1 0 3.7 1.7 3.7 3.8 0 2.1-1.7 3.8-3.7 3.8H48.2c-2 0-3.6-1.6-3.7-3.6-.1-2.2 1.5-3.9 3.6-4zm-14.3 3.9l.4-.2c1.8-1.1 4.1-.4 5.1 1.4 1.1 1.8.4 4.1-1.4 5.1l-.2.1c-.6.4-1.3.6-2 .6-1.3 0-2.5-.7-3.2-1.8-1-1.7-.5-4.1 1.3-5.2zM23.4 36.9l.2-.4c1.1-1.8 3.4-2.4 5.1-1.3 1.8 1.1 2.4 3.4 1.4 5.1l-.2.3c-1.3 2.1-3.4 2.3-5.1 1.4-1.8-.9-2.4-3.2-1.4-5.1zm-3.7 15.7c0-.5-.1-1.6-.1-1.6 0-2.1 1.7-3.8 3.8-3.8 2.1 0 3.8 1.7 3.8 3.8v1.3c.1 2.1-1.5 3.8-3.6 3.9h-.2c-2 0-3.6-1.6-3.7-3.6zm9.7 15.3c-.7.4-1.4.6-2.1.6-1.2 0-2.4-.6-3.2-1.7l-1.4-2.4c-1-1.9-.2-4.1 1.6-5.1 1.9-1 4.1-.3 5.1 1.6.3.6.7 1.2 1 1.8 1.2 1.7.8 4.1-1 5.2zm10.9 7.3c-.7 1.3-2 2-3.4 2-.6 0-1.2-.1-1.7-.4-.8-.5-1.6-.9-2.4-1.4-1.7-1.1-2.3-3.4-1.1-5.2 1.1-1.8 3.4-2.3 5.2-1.1.6.4 1.2.7 1.8 1 1.8.9 2.5 3.2 1.6 5.1zm10.3 4.7c-.7.1-1.4.1-2.1.1H47c-2.1-.1-3.7-1.9-3.6-3.9.1-2.1 1.9-3.7 3.9-3.6h1.1c.5 0 1.1 0 1.6-.1 2.1-.2 3.9 1.4 4 3.5.2 2-1.3 3.8-3.4 4zm16.2-6.5c-1.1 1-2.3 1.8-3.6 2.6-.6.4-1.3.5-1.9.5-1.3 0-2.5-.7-3.2-1.8-1.1-1.8-.5-4.1 1.3-5.1.9-.6 1.8-1.2 2.7-1.9 1.6-1.4 4-1.1 5.3.5 1.2 1.4 1 3.8-.6 5.2zm9.4-14.8c-.4 1.4-.9 2.9-1.5 4.2-.6 1.4-2 2.3-3.4 2.3-.5 0-1.1-.1-1.6-.3-1.9-.9-2.8-3.1-1.9-5 .5-1 .8-2.1 1.1-3.1.6-2 2.6-3.2 4.6-2.6 2.1.5 3.3 2.5 2.7 4.5zm-5.3-25.4c2.4 3 4.2 6.4 5.2 10.1.3 1.1.4 1.3.5 2.1.4 2.1-.9 4-2.9 4.4-.2.1-.5.1-.8.1-1.8 0-3.3-1.3-3.7-3-.1-.6-.2-.9-.4-1.6-.9-2.9-2.3-5.6-4.3-7.9V43c0 2.1-1.7 3.7-3.7 3.7-2.1 0-3.8-1.7-3.8-3.7V29.5c0-2.1 1.7-3.7 3.8-3.7h13.5c2.1 0 3.8 1.7 3.8 3.7 0 2.1-1.7 3.8-3.8 3.8h-3.4z"/></svg>