<svg xmlns="http://www.w3.org/2000/svg" viewBox="0 0 100 100"><path d="M21.8 67.7c-.5-.9-1.1-1.8-1.5-2.7-1.5-2.8-5-4-7.8-2.5s-4 4.9-2.5 7.8c.6 1.2 1.3 2.5 2.1 3.6 1.1 1.7 3 2.7 4.8 2.7 1.1 0 2.2-.3 3.1-.9 2.7-1.7 3.5-5.3 1.8-8zm12.5 11.4c-.9-.5-1.8-1-2.7-1.6-2.7-1.7-6.3-.9-8 1.7-1.7 2.7-.9 6.3 1.7 8 1.2.8 2.4 1.5 3.6 2.1.8.4 1.8.6 2.7.6 2.1 0 4.1-1.1 5.1-3.1 1.5-2.7.4-6.3-2.4-7.7zm14.6-61.8h.3c3.2 0 5.8-2.6 5.8-5.8 0-3.2-2.6-5.8-5.8-5.8h-.5c-3.2.1-5.7 2.9-5.5 6.1.2 3.1 2.7 5.5 5.7 5.5zm2.9 65.3c-.8.1-1.6.1-2.5.1h-1.6c-3.2-.1-5.9 2.3-6.1 5.5-.1 3.2 2.3 5.9 5.5 6h2.2c1.1 0 2.2 0 3.3-.1 3.2-.2 5.6-3 5.3-6.2-.2-3.1-3-5.5-6.1-5.3zM11.1 57.7c3.2-.1 5.7-2.9 5.5-6v-1.9c0-3.2-2.6-5.8-5.8-5.8S5 46.6 5 49.8v2.5c.1 3.1 2.7 5.5 5.8 5.5h.3zM88 54.4c-3.1-.8-6.3 1-7.1 4.1-.4 1.6-1 3.2-1.7 4.7-1.3 2.9 0 6.3 2.9 7.6.8.3 1.6.5 2.4.5 2.2 0 4.3-1.3 5.3-3.4.9-2.1 1.7-4.3 2.2-6.4.9-3.1-1-6.3-4-7.1zM29.8 22.6c1 0 2-.2 3-.8l.3-.2c2.8-1.6 3.8-5.1 2.2-7.9-1.6-2.8-5.1-3.8-7.9-2.2l-.6.3c-2.7 1.6-3.6 5.2-1.9 7.9 1.1 1.9 2.9 2.9 4.9 2.9zm65.2-6c0-3.2-2.6-5.8-5.7-5.8H68.5c-3.2 0-5.8 2.6-5.8 5.8v20.7c0 3.2 2.6 5.8 5.8 5.8 3.2 0 5.8-2.6 5.8-5.8v-8.4c3 3.6 5.2 7.7 6.5 12.2.3 1.2.4 1.6.5 2.4.5 2.7 3 4.6 5.6 4.6.4 0 .8 0 1.2-.1 3.1-.6 5.1-3.7 4.5-6.8-.1-.8-.4-1.8-.8-3.3-1.6-5.6-4.4-10.9-8-15.5h5.4c3.2 0 5.8-2.6 5.8-5.8zM70.1 75.2c-1.3 1.1-2.6 2.1-4.1 2.9-2.7 1.6-3.6 5.2-2 7.9 1.1 1.8 3 2.8 4.9 2.8 1 0 2-.2 3-.8 2-1.2 3.8-2.5 5.6-4 2.4-2 2.8-5.7.7-8.2-1.9-2.3-5.6-2.6-8.1-.6zM12.9 36c2.7 1.4 6 .9 7.9-2.2l.2-.4c1.6-2.7.7-6.3-2-7.9-2.7-1.6-6.3-.7-7.9 2.1l-.3.5c-1.6 2.8-.7 6.4 2.1 7.9z"/></svg>